<svg viewBox="0 0 238.41 136.47" xmlns:xlink="http://www.w3.org/1999/xlink" xmlns="http://www.w3.org/2000/svg"><defs><style>.cls-1{fill:url(#未命名的渐变_217);}.cls-2{fill:url(#未命名的渐变_255);}.cls-3{fill:url(#未命名的渐变_252);}.cls-4{fill:url(#未命名的渐变_19);}.cls-5{fill:url(#未命名的渐变_19-2);}.cls-6{fill:url(#未命名的渐变_248);}.cls-7{fill:url(#未命名的渐变_242);}.cls-8{fill:url(#未命名的渐变_248-2);}.cls-9{fill:url(#未命名的渐变_234);}.cls-10{fill:url(#未命名的渐变_234-2);}.cls-11{fill:url(#未命名的渐变_164);}.cls-12{fill:url(#未命名的渐变_164-2);}.cls-13{fill:url(#未命名的渐变_164-3);}.cls-14{fill:url(#未命名的渐变_164-4);}.cls-15{fill:url(#未命名的渐变_248-3);}.cls-16{fill:url(#未命名的渐变_234-3);}.cls-17{fill:#feb99b;}.cls-18{fill:#343434;}.cls-19{fill:#ffd5c3;}.cls-20{fill:#5c5c5c;}.cls-21{fill:#3e3e3e;}.cls-22{fill:#fed4c2;}.cls-23{fill:#301b20;}.cls-24{fill:url(#未命名的渐变_18);}.cls-25{fill:url(#未命名的渐变_18-2);}.cls-26{fill:url(#未命名的渐变_18-3);}</style><linearGradient gradientUnits="userSpaceOnUse" y2="68.07" x2="119.2" y1="136.47" x1="119.2" id="未命名的渐变_217"><stop stop-color="#fff" offset="0"></stop><stop stop-color="#fdfeff" offset="0.38"></stop><stop stop-color="#f6fafe" offset="0.53"></stop><stop stop-color="#e9f4fc" offset="0.65"></stop><stop stop-color="#d8eaf9" offset="0.75"></stop><stop stop-color="#c1def6" offset="0.84"></stop><stop stop-color="#a4cff1" offset="0.91"></stop><stop stop-color="#83beec" offset="0.98"></stop><stop stop-color="#7ab9eb" offset="1"></stop></linearGradient><linearGradient gradientUnits="userSpaceOnUse" y2="103.85" x2="158.99" y1="114.23" x1="158.99" id="未命名的渐变_255"><stop stop-opacity="0.3" stop-color="#5caae8" offset="0"></stop><stop stop-opacity="0" stop-color="#fff" offset="1"></stop></linearGradient><linearGradient gradientUnits="userSpaceOnUse" y2="73.78" x2="60.36" y1="96.68" x1="66.49" id="未命名的渐变_252"><stop stop-opacity="0.5" stop-color="#5caae8" offset="0"></stop><stop stop-opacity="0.31" stop-color="#99caf1" offset="0.29"></stop><stop stop-opacity="0.14" stop-color="#d0e7f8" offset="0.6"></stop><stop stop-opacity="0.04" stop-color="#f2f8fd" offset="0.85"></stop><stop stop-opacity="0" stop-color="#fff" offset="1"></stop></linearGradient><linearGradient gradientUnits="userSpaceOnUse" y2="78.72" x2="24.81" y1="87.83" x1="24.81" id="未命名的渐变_19"><stop stop-color="#fff" offset="0"></stop><stop stop-color="#7ab9eb" offset="1"></stop></linearGradient><linearGradient xlink:href="#未命名的渐变_19" y2="56.4" x2="211.28" y1="70.14" x1="211.28" id="未命名的渐变_19-2"></linearGradient><linearGradient gradientUnits="userSpaceOnUse" gradientTransform="matrix(54.86, 1.92, 2.95, -84.6, 7722.34, -38265.52)" y2="-456.04" x2="-114.19" y1="-454.91" x1="-114.25" id="未命名的渐变_248"><stop stop-color="#5caae8" offset="0"></stop><stop stop-color="#6cb2ea" offset="0.09"></stop><stop stop-color="#80bced" offset="0.25"></stop><stop stop-color="#8ec3ef" offset="0.43"></stop><stop stop-color="#96c8f1" offset="0.64"></stop><stop stop-color="#99c9f1" offset="1"></stop></linearGradient><linearGradient gradientUnits="userSpaceOnUse" gradientTransform="matrix(54.86, 1.92, 2.95, -84.6, 7722.34, -38265.52)" y2="-456.08" x2="-114.12" y1="-454.95" x1="-114.18" id="未命名的渐变_242"><stop stop-color="#7ab9eb" offset="0"></stop><stop stop-color="#8bc2ee" offset="0.1"></stop><stop stop-color="#9fcdf1" offset="0.25"></stop><stop stop-color="#add4f3" offset="0.43"></stop><stop stop-color="#b5d9f5" offset="0.64"></stop><stop stop-color="#b8daf5" offset="1"></stop></linearGradient><linearGradient xlink:href="#未命名的渐变_248" gradientTransform="matrix(26.01, 0.91, 0.37, -10.47, 3174.88, -5974.85)" y2="-581.09" x2="-109.6" y1="-579.9" x1="-109.62" id="未命名的渐变_248-2"></linearGradient><linearGradient gradientUnits="userSpaceOnUse" gradientTransform="matrix(26.01, 0.91, 0.37, -10.54, 3177.15, -6004.11)" y2="-580.18" x2="-109.59" y1="-578.98" x1="-109.61" id="未命名的渐变_234"><stop stop-color="#b8daf5" offset="0"></stop><stop stop-color="#beddf6" offset="0.04"></stop><stop stop-color="#d2e7f9" offset="0.2"></stop><stop stop-color="#e0eefb" offset="0.39"></stop><stop stop-color="#e8f3fd" offset="0.62"></stop><stop stop-color="#ebf4fd" offset="1"></stop></linearGradient><linearGradient xlink:href="#未命名的渐变_234" gradientTransform="matrix(51.38, 0, 0, -68.36, 6022.19, -31382.8)" y2="-460.39" x2="-114.67" y1="-459.4" x1="-115.12" id="未命名的渐变_234-2"></linearGradient><linearGradient gradientUnits="userSpaceOnUse" y2="25.9" x2="114.29" y1="29.78" x1="114.77" id="未命名的渐变_164"><stop stop-color="#5caae8" offset="0"></stop><stop stop-color="#5eabe8" offset="0"></stop><stop stop-color="#83beee" offset="0.1"></stop><stop stop-color="#a3cff2" offset="0.2"></stop><stop stop-color="#bedcf6" offset="0.31"></stop><stop stop-color="#d2e7f9" offset="0.43"></stop><stop stop-color="#e0eefb" offset="0.56"></stop><stop stop-color="#e8f3fd" offset="0.73"></stop><stop stop-color="#ebf4fd" offset="1"></stop></linearGradient><linearGradient xlink:href="#未命名的渐变_164" y2="36.79" x2="114.29" y1="40.67" x1="114.77" id="未命名的渐变_164-2"></linearGradient><linearGradient xlink:href="#未命名的渐变_164" y2="47.68" x2="114.29" y1="51.56" x1="114.77" id="未命名的渐变_164-3"></linearGradient><linearGradient xlink:href="#未命名的渐变_164" y2="59.67" x2="105.3" y1="63.54" x1="105.77" id="未命名的渐变_164-4"></linearGradient><linearGradient xlink:href="#未命名的渐变_248" gradientTransform="matrix(1, 0, 0, 1, 0, 0)" y2="61.37" x2="118.42" y1="30.85" x1="118.42" id="未命名的渐变_248-3"></linearGradient><linearGradient xlink:href="#未命名的渐变_234" gradientTransform="matrix(1, 0, 0, 1, 0, 0)" y2="59.28" x2="119.5" y1="28.76" x1="119.5" id="未命名的渐变_234-3"></linearGradient><linearGradient gradientUnits="userSpaceOnUse" gradientTransform="matrix(-1, 0, 0, 1, 503.11, 0)" y2="43.13" x2="361.73" y1="51.42" x1="347.36" id="未命名的渐变_18"><stop stop-color="#007adc" offset="0"></stop><stop stop-color="#0ab0ed" offset="1"></stop></linearGradient><linearGradient xlink:href="#未命名的渐变_18" gradientTransform="translate(-2484.94)" y2="43.05" x2="2661.68" y1="51.35" x1="2647.31" id="未命名的渐变_18-2"></linearGradient><linearGradient xlink:href="#未命名的渐变_18" y2="45.76" x2="354.9" y1="58.51" x1="332.8" id="未命名的渐变_18-3"></linearGradient></defs><title>没有查询到您需要的内容</title><g id="图层_2"><g id="图层_1-2"><ellipse ry="34.2" rx="119.2" cy="102.27" cx="119.2" class="cls-1"></ellipse><ellipse ry="5.19" rx="14.09" cy="109.04" cx="158.99" class="cls-2"></ellipse><path d="M78.25,97.88V70.14c-4.76.5-10.78,1.3-16.79,2.2-6.89,1.1-13.36,2.38-19.33,3.84Z" class="cls-3"></path><circle r="4.56" cy="83.27" cx="24.81" class="cls-4"></circle><circle r="6.87" cy="63.27" cx="211.28" class="cls-5"></circle><path d="M79.95,8.36l61.9-7.1A1.92,1.92,0,0,1,144,3.17V90.71a1.92,1.92,0,0,1-1.7,1.91l-61.9,7.17a1.92,1.92,0,0,1-2.14-1.91V10.27A1.92,1.92,0,0,1,79.95,8.36Z" class="cls-6" id="矩形备份-2"></path><path d="M83.58,12l61.9-7.1a1.92,1.92,0,0,1,2.14,1.91V94.34a1.92,1.92,0,0,1-1.7,1.91L84,103.41a1.92,1.92,0,0,1-2.14-1.91V13.9A1.92,1.92,0,0,1,83.58,12Z" class="cls-7" id="矩形备份-2-2"></path><path d="M97.94,3.52,125.9,0a1.81,1.81,0,0,1,2,1.85l-.14,4.56a1.81,1.81,0,0,1-1.59,1.75l-28,3.51a1.81,1.81,0,0,1-2-1.85l.14-4.56A1.81,1.81,0,0,1,97.94,3.52Z" class="cls-8" id="矩形"></path><path d="M98.94,4.76l28.45-3.57a1.57,1.57,0,0,1,1.77,1.61L129,7.85a1.57,1.57,0,0,1-1.38,1.51L99.18,12.93a1.57,1.57,0,0,1-1.77-1.61l.15-5.05A1.57,1.57,0,0,1,98.94,4.76Z" class="cls-9" id="矩形-2"></path><path d="M89.47,19.56l49.6-6.2a1.81,1.81,0,0,1,2,1.8V53.46a65.67,65.67,0,0,0,8.77,33.32,1.21,1.21,0,0,1-.87,1.8L98.56,96a1.81,1.81,0,0,1-1.68-.65q-9-11.12-9-34.68V21.36A1.81,1.81,0,0,1,89.47,19.56Z" class="cls-10" id="矩形-3"></path><path d="M93.66,28.72l41.55-5.38a.6.6,0,0,1,.68.59l0,2.43a.6.6,0,0,1-.53.61L93.84,32.35a.6.6,0,0,1-.68-.59l0-2.43A.6.6,0,0,1,93.66,28.72Z" class="cls-11" id="矩形-4"></path><path d="M93.66,39.6l41.55-5.38a.6.6,0,0,1,.68.59l0,2.43a.6.6,0,0,1-.53.61L93.84,43.24a.6.6,0,0,1-.68-.59l0-2.43A.6.6,0,0,1,93.66,39.6Z" class="cls-12" id="矩形备份"></path><path d="M93.66,50.49l41.55-5.38a.6.6,0,0,1,.68.59l0,2.43a.6.6,0,0,1-.53.61L93.84,54.13a.6.6,0,0,1-.68-.59l0-2.43A.6.6,0,0,1,93.66,50.49Z" class="cls-13" id="矩形备份-3"></path><path d="M93.51,61.39l23.74-3.19a.6.6,0,0,1,.68.52v0l.14,2.42a.6.6,0,0,1-.52.63L93.81,65a.6.6,0,0,1-.68-.52v0L93,62A.6.6,0,0,1,93.51,61.39Z" class="cls-14" id="矩形备份-4"></path><path d="M125.74,44.39a9.42,9.42,0,1,0-9.42,9.68A9.55,9.55,0,0,0,125.74,44.39Zm4.7,16.42-5.74-5.89,0-.06a12.92,12.92,0,0,1-8.33,3.05A13.54,13.54,0,1,1,129.5,44.39,13.78,13.78,0,0,1,127.21,52l.18.15L133.13,58a2,2,0,0,1,0,2.76A1.89,1.89,0,0,1,130.45,60.81Z" class="cls-15"></path><path d="M126.83,42.3A9.42,9.42,0,1,0,117.41,52,9.55,9.55,0,0,0,126.83,42.3Zm4.7,16.42-5.74-5.89,0-.06a12.92,12.92,0,0,1-8.33,3.05A13.54,13.54,0,1,1,130.59,42.3a13.78,13.78,0,0,1-2.29,7.62l.18.15L134.22,56a2,2,0,0,1,0,2.76A1.89,1.89,0,0,1,131.53,58.72Z" class="cls-16"></path><rect transform="translate(357.12 122.78) rotate(153.53)" height="3.4" width="2.81" y="101.69" x="162.72" class="cls-17"></rect><path d="M165,101.79l-2.85,1.42s-7.1-10.57-10.52-17.81a8.34,8.34,0,0,1-.77-4.32l1.17-17.89h4.19S165.12,100.75,165,101.79Z" class="cls-18"></path><path d="M165.48,102.4c.26-.16.74.13,1.2,1.16s.91,1.49.1,2-5.5,2.76-6.83,3.42c-.45.22-.57-.29-.61-.41-.17-.53-.17-1.45,1.2-2.32,1-.72,1.5-2.24,2-2.48s.89.12,1.64-.31A15.56,15.56,0,0,0,165.48,102.4Z"></path><rect transform="translate(321.89 215) rotate(-180)" height="3.4" width="2.81" y="105.8" x="159.54" class="cls-19"></rect><path d="M165.56,64.67s-1.22,12.73-2.3,15.84c0,0,2.2,8.8-.78,26H159.3s-4.89-36.92-3.86-41.82Z" class="cls-20"></path><path d="M162.61,107.22c.3,0,.61.44.56,1.58s.15,1.74-.79,1.82-6.16,0-7.64,0c-.5,0-.38-.51-.36-.64.09-.55.49-1.38,2.11-1.54,1.19-.21,2.34-1.34,2.86-1.35s.75.5,1.6.45A15.56,15.56,0,0,0,162.61,107.22Z" class="cls-21"></path><rect transform="translate(316.38 71.67) rotate(-180)" height="6.52" width="3.54" y="32.58" x="156.42" class="cls-17"></rect><path d="M153.77,29.21s.1,5.89,1.71,6.2c1.35.27,4.4-1.42,4.89-2.58.59-1.39-.66-4-.66-4l-3.47-1.68-2.45,1.15Z" class="cls-19"></path><path d="M139.48,41.34c.54,1.22,1.06,1.37,1.27,1.37a.09.09,0,0,0,.09-.1,1,1,0,0,1,0-.45.19.19,0,0,1,.33-.07l1.28,1.45-2.52,2.35A12.25,12.25,0,0,1,138.29,43a1.72,1.72,0,0,1-.11-1,1,1,0,0,1,1-.86A.3.3,0,0,1,139.48,41.34Z" class="cls-22"></path><path d="M160.42,33.62s-.49.14-.72-1a.16.16,0,0,1,.08-.17,1.17,1.17,0,0,0,.45-1.73c-.55-1.1-1.35-.1-1.55.51a.06.06,0,0,1-.12,0c-.25-.88-1.14-3.37-3-3.24-2.23.16-1.62,2.06-1.62,2.06s-.32-.08-.49-1.53c0,0-.35.39,0,1.26,0,0-.27,0-.37-.64a2.43,2.43,0,0,1,.55-2,5.37,5.37,0,0,1,4.26-1.71,2.22,2.22,0,0,1,1.35.43,1.86,1.86,0,0,1,.5.56,2.15,2.15,0,0,1,2.19,1.7c.31,1.76,0,3.1-.71,3.72A2.76,2.76,0,0,0,160.42,33.62Z" class="cls-23"></path><path d="M151.64,40.16l-2.92,9.62a.58.58,0,0,1-1,.2l-5.28-6.5-2.61,2.31,7.79,9.73a1.3,1.3,0,0,0,1.76.25l6.48-4.55Z" class="cls-24"></path><path d="M178.49,41c-.54,1.22-1.06,1.37-1.27,1.37a.09.09,0,0,1-.09-.1,1,1,0,0,0,0-.45.19.19,0,0,0-.33-.07l-1.28,1.45L178,45.56a12.25,12.25,0,0,0,1.63-2.86,1.72,1.72,0,0,0,.11-1,1,1,0,0,0-1-.86A.3.3,0,0,0,178.49,41Z" class="cls-22"></path><path d="M166.58,40.37l2.67,9.09a.58.58,0,0,0,1,.2l5.28-6.5,2.61,2.31-7.79,9.73a1.3,1.3,0,0,1-1.76.25l-6.48-4.55Z" class="cls-25"></path><path d="M151.5,40.49s.49-3.4,4.95-3.77c0,0,.06,1.86,1,1.94S160,35.71,160,35.71s6.28,2.48,6.67,5h0v0a1.49,1.49,0,0,1,0,.35V64.79H151.5Z" class="cls-26"></path></g></g></svg>