<svg id="图层_1" data-name="图层 1" xmlns="http://www.w3.org/2000/svg" viewBox="0 0 60 43.04"><defs><style>.cls-1{fill:#dde2ec;}.cls-2{fill:#b3c0ce;}.cls-3{opacity:0.69;}.cls-4{fill:#8cd31a;}.cls-5{fill:#177fdd;}</style></defs><title>area</title><rect class="cls-1" x="4.78" y="1.12" width="0.25" height="37.04"/><rect class="cls-1" x="4.67" y="38.03" width="55.08" height="0.25"/><rect class="cls-1" x="59.49" y="28.77" width="0.25" height="0.25"/><path class="cls-1" d="M59,29h-.5v-.25H59Zm-1,0h-.5v-.25H58Zm-1,0h-.49v-.25H57Zm-1,0h-.5v-.25H56Zm-1,0h-.5v-.25H55Zm-1,0h-.5v-.25H54Zm-1,0h-.5v-.25H53Zm-1,0h-.49v-.25H52Zm-1,0h-.5v-.25H51Zm-1,0h-.5v-.25H50Zm-1,0h-.5v-.25H49Zm-1,0h-.5v-.25H48Zm-1,0h-.49v-.25H47Zm-1,0h-.5v-.25h.5Zm-1,0h-.49v-.25h.49Zm-1,0h-.5v-.25h.5Zm-1,0h-.5v-.25h.5Zm-1,0h-.49v-.25h.49Zm-1,0h-.5v-.25h.5Zm-1,0h-.49v-.25h.49Zm-1,0h-.5v-.25h.5Zm-1,0h-.5v-.25h.5Zm-1,0h-.5v-.25h.5Zm-1,0h-.5v-.25h.5Zm-1,0H34.6v-.25h.49Zm-1,0h-.5v-.25h.5Zm-1,0h-.5v-.25h.5Zm-1,0h-.5v-.25h.5Zm-1,0h-.5v-.25h.5Zm-1,0h-.49v-.25h.49Zm-1,0h-.5v-.25h.5Zm-1,0h-.5v-.25h.5Zm-1,0h-.5v-.25h.5Zm-1,0h-.5v-.25h.5Zm-1,0h-.49v-.25h.49Zm-1,0h-.5v-.25h.5Zm-1,0h-.5v-.25h.5Zm-1,0h-.5v-.25h.5Zm-1,0h-.5v-.25h.5Zm-1,0h-.49v-.25h.49Zm-1,0h-.5v-.25h.5Zm-1,0h-.49v-.25h.49Zm-1,0h-.5v-.25h.5Zm-1,0h-.5v-.25h.5Zm-1,0h-.49v-.25h.49Zm-1,0h-.5v-.25h.5Zm-1,0h-.49v-.25h.49Zm-1,0h-.5v-.25h.5Zm-1,0h-.5v-.25h.5Zm-1,0H9.7v-.25h.5Zm-1,0H8.7v-.25h.5Zm-1,0H7.71v-.25H8.2Zm-1,0h-.5v-.25h.5Zm-1,0h-.5v-.25h.5Z"/><rect class="cls-1" x="4.97" y="28.77" width="0.25" height="0.25"/><rect class="cls-1" x="59.49" y="19.51" width="0.25" height="0.25"/><path class="cls-1" d="M59,19.76h-.5v-.25H59Zm-1,0h-.5v-.25H58Zm-1,0h-.49v-.25H57Zm-1,0h-.5v-.25H56Zm-1,0h-.5v-.25H55Zm-1,0h-.5v-.25H54Zm-1,0h-.5v-.25H53Zm-1,0h-.49v-.25H52Zm-1,0h-.5v-.25H51Zm-1,0h-.5v-.25H50Zm-1,0h-.5v-.25H49Zm-1,0h-.5v-.25H48Zm-1,0h-.49v-.25H47Zm-1,0h-.5v-.25h.5Zm-1,0h-.49v-.25h.49Zm-1,0h-.5v-.25h.5Zm-1,0h-.5v-.25h.5Zm-1,0h-.49v-.25h.49Zm-1,0h-.5v-.25h.5Zm-1,0h-.49v-.25h.49Zm-1,0h-.5v-.25h.5Zm-1,0h-.5v-.25h.5Zm-1,0h-.5v-.25h.5Zm-1,0h-.5v-.25h.5Zm-1,0H34.6v-.25h.49Zm-1,0h-.5v-.25h.5Zm-1,0h-.5v-.25h.5Zm-1,0h-.5v-.25h.5Zm-1,0h-.5v-.25h.5Zm-1,0h-.49v-.25h.49Zm-1,0h-.5v-.25h.5Zm-1,0h-.5v-.25h.5Zm-1,0h-.5v-.25h.5Zm-1,0h-.5v-.25h.5Zm-1,0h-.49v-.25h.49Zm-1,0h-.5v-.25h.5Zm-1,0h-.5v-.25h.5Zm-1,0h-.5v-.25h.5Zm-1,0h-.5v-.25h.5Zm-1,0h-.49v-.25h.49Zm-1,0h-.5v-.25h.5Zm-1,0h-.49v-.25h.49Zm-1,0h-.5v-.25h.5Zm-1,0h-.5v-.25h.5Zm-1,0h-.49v-.25h.49Zm-1,0h-.5v-.25h.5Zm-1,0h-.49v-.25h.49Zm-1,0h-.5v-.25h.5Zm-1,0h-.5v-.25h.5Zm-1,0H9.7v-.25h.5Zm-1,0H8.7v-.25h.5Zm-1,0H7.71v-.25H8.2Zm-1,0h-.5v-.25h.5Zm-1,0h-.5v-.25h.5Z"/><rect class="cls-1" x="4.97" y="19.51" width="0.25" height="0.25"/><rect class="cls-1" x="59.49" y="10.25" width="0.25" height="0.25"/><path class="cls-1" d="M59,10.5h-.5v-.25H59Zm-1,0h-.5v-.25H58Zm-1,0h-.49v-.25H57Zm-1,0h-.5v-.25H56Zm-1,0h-.5v-.25H55Zm-1,0h-.5v-.25H54Zm-1,0h-.5v-.25H53Zm-1,0h-.49v-.25H52Zm-1,0h-.5v-.25H51Zm-1,0h-.5v-.25H50Zm-1,0h-.5v-.25H49Zm-1,0h-.5v-.25H48Zm-1,0h-.49v-.25H47Zm-1,0h-.5v-.25h.5Zm-1,0h-.49v-.25h.49Zm-1,0h-.5v-.25h.5Zm-1,0h-.5v-.25h.5Zm-1,0h-.49v-.25h.49Zm-1,0h-.5v-.25h.5Zm-1,0h-.49v-.25h.49Zm-1,0h-.5v-.25h.5Zm-1,0h-.5v-.25h.5Zm-1,0h-.5v-.25h.5Zm-1,0h-.5v-.25h.5Zm-1,0H34.6v-.25h.49Zm-1,0h-.5v-.25h.5Zm-1,0h-.5v-.25h.5Zm-1,0h-.5v-.25h.5Zm-1,0h-.5v-.25h.5Zm-1,0h-.49v-.25h.49Zm-1,0h-.5v-.25h.5Zm-1,0h-.5v-.25h.5Zm-1,0h-.5v-.25h.5Zm-1,0h-.5v-.25h.5Zm-1,0h-.49v-.25h.49Zm-1,0h-.5v-.25h.5Zm-1,0h-.5v-.25h.5Zm-1,0h-.5v-.25h.5Zm-1,0h-.5v-.25h.5Zm-1,0h-.49v-.25h.49Zm-1,0h-.5v-.25h.5Zm-1,0h-.49v-.25h.49Zm-1,0h-.5v-.25h.5Zm-1,0h-.5v-.25h.5Zm-1,0h-.49v-.25h.49Zm-1,0h-.5v-.25h.5Zm-1,0h-.49v-.25h.49Zm-1,0h-.5v-.25h.5Zm-1,0h-.5v-.25h.5Zm-1,0H9.7v-.25h.5Zm-1,0H8.7v-.25h.5Zm-1,0H7.71v-.25H8.2Zm-1,0h-.5v-.25h.5Zm-1,0h-.5v-.25h.5Z"/><rect class="cls-1" x="4.97" y="10.25" width="0.25" height="0.25"/><rect class="cls-1" x="59.49" y="0.99" width="0.25" height="0.25"/><path class="cls-1" d="M59,1.24h-.5V1H59Zm-1,0h-.5V1H58Zm-1,0h-.49V1H57Zm-1,0h-.5V1H56Zm-1,0h-.5V1H55Zm-1,0h-.5V1H54Zm-1,0h-.5V1H53Zm-1,0h-.49V1H52Zm-1,0h-.5V1H51Zm-1,0h-.5V1H50Zm-1,0h-.5V1H49Zm-1,0h-.5V1H48Zm-1,0h-.49V1H47Zm-1,0h-.5V1h.5Zm-1,0h-.49V1h.49Zm-1,0h-.5V1h.5Zm-1,0h-.5V1h.5Zm-1,0h-.49V1h.49Zm-1,0h-.5V1h.5Zm-1,0h-.49V1h.49Zm-1,0h-.5V1h.5Zm-1,0h-.5V1h.5Zm-1,0h-.5V1h.5Zm-1,0h-.5V1h.5Zm-1,0H34.6V1h.49Zm-1,0h-.5V1h.5Zm-1,0h-.5V1h.5Zm-1,0h-.5V1h.5Zm-1,0h-.5V1h.5Zm-1,0h-.49V1h.49Zm-1,0h-.5V1h.5Zm-1,0h-.5V1h.5Zm-1,0h-.5V1h.5Zm-1,0h-.5V1h.5Zm-1,0h-.49V1h.49Zm-1,0h-.5V1h.5Zm-1,0h-.5V1h.5Zm-1,0h-.5V1h.5Zm-1,0h-.5V1h.5Zm-1,0h-.49V1h.49Zm-1,0h-.5V1h.5Zm-1,0h-.49V1h.49Zm-1,0h-.5V1h.5Zm-1,0h-.5V1h.5Zm-1,0h-.49V1h.49Zm-1,0h-.5V1h.5Zm-1,0h-.49V1h.49Zm-1,0h-.5V1h.5Zm-1,0h-.5V1h.5Zm-1,0H9.7V1h.5Zm-1,0H8.7V1h.5Zm-1,0H7.71V1H8.2Zm-1,0h-.5V1h.5Zm-1,0h-.5V1h.5Z"/><rect class="cls-1" x="4.97" y="0.99" width="0.25" height="0.25"/><rect class="cls-1" x="18.54" y="37.91" width="0.25" height="0.25"/><path class="cls-1" d="M18.79,37.4h-.25v-.5h.25Zm0-1h-.25v-.5h.25Zm0-1h-.25v-.5h.25Zm0-1h-.25v-.5h.25Zm0-1h-.25v-.5h.25Zm0-1h-.25v-.51h.25Zm0-1h-.25v-.51h.25Zm0-1h-.25v-.51h.25Zm0-1h-.25v-.51h.25Zm0-1h-.25V27.8h.25Zm0-1h-.25v-.51h.25Zm0-1h-.25v-.51h.25Zm0-1h-.25v-.51h.25Zm0-1h-.25v-.51h.25Zm0-1h-.25v-.5h.25Zm0-1h-.25v-.5h.25Zm0-1h-.25v-.5h.25Zm0-1h-.25v-.5h.25Zm0-1h-.25v-.5h.25Zm0-1h-.25v-.5h.25Zm0-1h-.25v-.5h.25Zm0-1h-.25v-.51h.25Zm0-1h-.25v-.51h.25Zm0-1h-.25v-.51h.25Zm0-1h-.25v-.51h.25Zm0-1h-.25v-.51h.25Zm0-1h-.25v-.51h.25Zm0-1h-.25V9.61h.25Zm0-1h-.25V8.6h.25Zm0-1h-.25v-.5h.25Zm0-1h-.25v-.5h.25Zm0-1h-.25v-.5h.25Zm0-1h-.25v-.5h.25Zm0-1h-.25v-.5h.25Zm0-1h-.25v-.5h.25Zm0-1h-.25v-.5h.25Z"/><rect class="cls-1" x="18.54" y="0.77" width="0.25" height="0.25"/><rect class="cls-1" x="32.23" y="37.91" width="0.25" height="0.25"/><path class="cls-1" d="M32.48,37.4h-.25v-.5h.25Zm0-1h-.25v-.5h.25Zm0-1h-.25v-.5h.25Zm0-1h-.25v-.5h.25Zm0-1h-.25v-.5h.25Zm0-1h-.25v-.51h.25Zm0-1h-.25v-.51h.25Zm0-1h-.25v-.51h.25Zm0-1h-.25v-.51h.25Zm0-1h-.25V27.8h.25Zm0-1h-.25v-.51h.25Zm0-1h-.25v-.51h.25Zm0-1h-.25v-.51h.25Zm0-1h-.25v-.51h.25Zm0-1h-.25v-.5h.25Zm0-1h-.25v-.5h.25Zm0-1h-.25v-.5h.25Zm0-1h-.25v-.5h.25Zm0-1h-.25v-.5h.25Zm0-1h-.25v-.5h.25Zm0-1h-.25v-.5h.25Zm0-1h-.25v-.51h.25Zm0-1h-.25v-.51h.25Zm0-1h-.25v-.51h.25Zm0-1h-.25v-.51h.25Zm0-1h-.25v-.51h.25Zm0-1h-.25v-.51h.25Zm0-1h-.25V9.61h.25Zm0-1h-.25V8.6h.25Zm0-1h-.25v-.5h.25Zm0-1h-.25v-.5h.25Zm0-1h-.25v-.5h.25Zm0-1h-.25v-.5h.25Zm0-1h-.25v-.5h.25Zm0-1h-.25v-.5h.25Zm0-1h-.25v-.5h.25Z"/><rect class="cls-1" x="32.23" y="0.77" width="0.25" height="0.25"/><rect class="cls-1" x="45.92" y="37.91" width="0.25" height="0.25"/><path class="cls-1" d="M46.18,37.4h-.26v-.5h.26Zm0-1h-.26v-.5h.26Zm0-1h-.26v-.5h.26Zm0-1h-.26v-.5h.26Zm0-1h-.26v-.5h.26Zm0-1h-.26v-.51h.26Zm0-1h-.26v-.51h.26Zm0-1h-.26v-.51h.26Zm0-1h-.26v-.51h.26Zm0-1h-.26V27.8h.26Zm0-1h-.26v-.51h.26Zm0-1h-.26v-.51h.26Zm0-1h-.26v-.51h.26Zm0-1h-.26v-.51h.26Zm0-1h-.26v-.5h.26Zm0-1h-.26v-.5h.26Zm0-1h-.26v-.5h.26Zm0-1h-.26v-.5h.26Zm0-1h-.26v-.5h.26Zm0-1h-.26v-.5h.26Zm0-1h-.26v-.5h.26Zm0-1h-.26v-.51h.26Zm0-1h-.26v-.51h.26Zm0-1h-.26v-.51h.26Zm0-1h-.26v-.51h.26Zm0-1h-.26v-.51h.26Zm0-1h-.26v-.51h.26Zm0-1h-.26V9.61h.26Zm0-1h-.26V8.6h.26Zm0-1h-.26v-.5h.26Zm0-1h-.26v-.5h.26Zm0-1h-.26v-.5h.26Zm0-1h-.26v-.5h.26Zm0-1h-.26v-.5h.26Zm0-1h-.26v-.5h.26Zm0-1h-.26v-.5h.26Z"/><rect class="cls-1" x="45.92" y="0.77" width="0.25" height="0.25"/><rect class="cls-1" x="59.62" y="37.91" width="0.25" height="0.25"/><path class="cls-1" d="M59.87,37.4h-.25v-.5h.25Zm0-1h-.25v-.5h.25Zm0-1h-.25v-.5h.25Zm0-1h-.25v-.5h.25Zm0-1h-.25v-.5h.25Zm0-1h-.25v-.51h.25Zm0-1h-.25v-.51h.25Zm0-1h-.25v-.51h.25Zm0-1h-.25v-.51h.25Zm0-1h-.25V27.8h.25Zm0-1h-.25v-.51h.25Zm0-1h-.25v-.51h.25Zm0-1h-.25v-.51h.25Zm0-1h-.25v-.51h.25Zm0-1h-.25v-.5h.25Zm0-1h-.25v-.5h.25Zm0-1h-.25v-.5h.25Zm0-1h-.25v-.5h.25Zm0-1h-.25v-.5h.25Zm0-1h-.25v-.5h.25Zm0-1h-.25v-.5h.25Zm0-1h-.25v-.51h.25Zm0-1h-.25v-.51h.25Zm0-1h-.25v-.51h.25Zm0-1h-.25v-.51h.25Zm0-1h-.25v-.51h.25Zm0-1h-.25v-.51h.25Zm0-1h-.25V9.61h.25Zm0-1h-.25V8.6h.25Zm0-1h-.25v-.5h.25Zm0-1h-.25v-.5h.25Zm0-1h-.25v-.5h.25Zm0-1h-.25v-.5h.25Zm0-1h-.25v-.5h.25Zm0-1h-.25v-.5h.25Zm0-1h-.25v-.5h.25Z"/><rect class="cls-1" x="59.62" y="0.77" width="0.25" height="0.25"/><path class="cls-2" d="M6.22,41.64a.6.6,0,0,1,.13.4v1H6.13v-.25a.64.64,0,0,1-.23.2.75.75,0,0,1-.37.09.52.52,0,0,1-.36-.11.39.39,0,0,1-.14-.3.41.41,0,0,1,.21-.38.85.85,0,0,1,.52-.13h.36V42c0-.25-.13-.37-.39-.37a.54.54,0,0,0-.27.06.32.32,0,0,0-.15.22l-.23,0a.54.54,0,0,1,.23-.35.78.78,0,0,1,.43-.1A.6.6,0,0,1,6.22,41.64Zm-.45.65c-.33,0-.5.12-.5.33a.21.21,0,0,0,.08.17.35.35,0,0,0,.23.07A.59.59,0,0,0,6,42.72a.41.41,0,0,0,.16-.31v-.12Z"/><path class="cls-2" d="M1.36,37.1a1.49,1.49,0,0,1,.16.75,1.43,1.43,0,0,1-.16.74.62.62,0,0,1-.56.33.6.6,0,0,1-.56-.33,1.43,1.43,0,0,1-.16-.74,1.49,1.49,0,0,1,.16-.75.59.59,0,0,1,.56-.32A.61.61,0,0,1,1.36,37.1Zm-1,.18a1.85,1.85,0,0,0,0,1.14.41.41,0,0,0,.4.3.42.42,0,0,0,.4-.3,1.7,1.7,0,0,0,.09-.57,1.7,1.7,0,0,0-.09-.57A.42.42,0,0,0,.8,37,.41.41,0,0,0,.4,37.28Z"/><path class="cls-2" d="M1.07,27.72v2.06H.83V28a1.15,1.15,0,0,1-.48.28v-.24a.85.85,0,0,0,.28-.12,1,1,0,0,0,.25-.21Z"/><path class="cls-2" d="M1.3,18.69a.57.57,0,0,1,.18.44.73.73,0,0,1-.2.49A3.33,3.33,0,0,1,.85,20a1,1,0,0,0-.45.47H1.49v.21H.11a.75.75,0,0,1,.21-.51,2.41,2.41,0,0,1,.44-.37,2.92,2.92,0,0,0,.33-.25.58.58,0,0,0,.16-.37.38.38,0,0,0-.12-.3.48.48,0,0,0-.31-.1.4.4,0,0,0-.33.15.67.67,0,0,0-.13.41H.13a.75.75,0,0,1,.19-.55.66.66,0,0,1,.51-.21A.69.69,0,0,1,1.3,18.69Z"/><path class="cls-2" d="M1.3,9.21a.5.5,0,0,1,.18.41.46.46,0,0,1-.34.46.62.62,0,0,1,.28.18.44.44,0,0,1,.1.3.6.6,0,0,1-.2.46.73.73,0,0,1-.52.18.76.76,0,0,1-.48-.15.72.72,0,0,1-.24-.53H.32a.46.46,0,0,0,.16.37A.5.5,0,0,0,.8,11a.48.48,0,0,0,.36-.13.41.41,0,0,0,.12-.3.36.36,0,0,0-.12-.29.48.48,0,0,0-.33-.1H.66V10H.82a.46.46,0,0,0,.31-.09.31.31,0,0,0,.11-.27.36.36,0,0,0-.1-.27.47.47,0,0,0-.32-.1.46.46,0,0,0-.32.11.48.48,0,0,0-.14.32H.12a.7.7,0,0,1,.22-.47.68.68,0,0,1,.48-.16A.74.74,0,0,1,1.3,9.21Z"/><path class="cls-2" d="M1.26,0V1.4H1.6v.2H1.26v.46H1V1.6H0V1.37L1,0ZM.2,1.4H1V.31H1Z"/><path class="cls-2" d="M18.68,40.9v.88a.53.53,0,0,1,.49-.31.59.59,0,0,1,.5.24.85.85,0,0,1,.17.54.91.91,0,0,1-.17.56.62.62,0,0,1-.51.23.52.52,0,0,1-.5-.28V43h-.21V40.9Zm.11.92a.7.7,0,0,0-.12.42v0a.73.73,0,0,0,.11.41.41.41,0,0,0,.35.17.42.42,0,0,0,.36-.17.78.78,0,0,0,.11-.43.72.72,0,0,0-.11-.42.44.44,0,0,0-.37-.17A.41.41,0,0,0,18.79,41.82Z"/><path class="cls-2" d="M33,41.6a.59.59,0,0,1,.22.41H33a.39.39,0,0,0-.14-.26.46.46,0,0,0-.29-.09.43.43,0,0,0-.35.17.83.83,0,0,0,0,.86.43.43,0,0,0,.35.16.39.39,0,0,0,.43-.39h.23a.61.61,0,0,1-.66.58.65.65,0,0,1-.53-.22.83.83,0,0,1-.17-.56A.85.85,0,0,1,32,41.7a.76.76,0,0,1,1-.1Z"/><path class="cls-2" d="M46.56,40.9V43h-.21v-.24a.53.53,0,0,1-.5.28.62.62,0,0,1-.51-.23.91.91,0,0,1-.17-.56.85.85,0,0,1,.17-.54.59.59,0,0,1,.5-.24.53.53,0,0,1,.49.31V40.9Zm-1,.93a.66.66,0,0,0-.11.42.71.71,0,0,0,.11.43.42.42,0,0,0,.36.17.41.41,0,0,0,.35-.17.73.73,0,0,0,.11-.41v0a.7.7,0,0,0-.12-.42.41.41,0,0,0-.33-.16A.43.43,0,0,0,45.52,41.83Z"/><path class="cls-2" d="M59.83,41.71a1,1,0,0,1,.17.61H58.82a.63.63,0,0,0,.14.39.42.42,0,0,0,.33.14.49.49,0,0,0,.3-.09.62.62,0,0,0,.15-.24H60a.68.68,0,0,1-.2.36.7.7,0,0,1-.48.16.65.65,0,0,1-.51-.21.77.77,0,0,1-.2-.58.8.8,0,0,1,.19-.55.71.71,0,0,1,1.06,0Zm-.86.08a.56.56,0,0,0-.14.35h.93c0-.32-.19-.48-.47-.48A.41.41,0,0,0,59,41.79Z"/><g class="cls-3"><polygon class="cls-4" points="4.97 22.95 18.66 24.81 32.35 15.2 46.05 18.64 59.74 10.38 59.74 38.61 5 38.61 4.97 22.95"/></g><g class="cls-3"><polygon class="cls-5" points="4.97 28.5 18.66 30.51 32.35 26.84 46.05 28.16 59.74 22.29 59.74 38.46 5 38.46 4.97 28.5"/></g></svg>