<svg id="图层_1" data-name="图层 1" xmlns="http://www.w3.org/2000/svg" viewBox="0 0 60 41.54"><defs><style>.cls-1{fill:#dde2ec;}.cls-2{fill:#0376e3;}.cls-3{fill:#8cd31a;}.cls-4{fill:#b3c0ce;}</style></defs><title>column</title><rect class="cls-1" x="5.7" y="0.96" width="0.25" height="35.25"/><rect class="cls-1" x="5.14" y="36.09" width="54.74" height="0.25"/><rect class="cls-1" x="11.98" y="36.06" width="0.25" height="0.85"/><rect class="cls-1" x="5.7" y="36.06" width="0.25" height="0.85"/><rect class="cls-1" x="22.4" y="36.06" width="0.25" height="0.85"/><rect class="cls-1" x="32.82" y="36.06" width="0.25" height="0.85"/><rect class="cls-1" x="43.23" y="36.06" width="0.25" height="0.85"/><rect class="cls-1" x="53.65" y="36.06" width="0.25" height="0.85"/><rect class="cls-1" x="59.75" y="36.06" width="0.25" height="0.85"/><rect class="cls-1" x="4.99" y="29.04" width="0.85" height="0.25"/><rect class="cls-1" x="4.99" y="36.09" width="0.85" height="0.25"/><rect class="cls-1" x="4.99" y="21.99" width="0.85" height="0.25"/><rect class="cls-1" x="4.99" y="14.94" width="0.85" height="0.25"/><rect class="cls-1" x="4.99" y="7.89" width="0.85" height="0.25"/><rect class="cls-1" x="4.99" y="0.84" width="0.85" height="0.25"/><rect class="cls-2" x="8.95" y="5.15" width="2.48" height="30.9"/><rect class="cls-2" x="19.29" y="14.58" width="2.48" height="21.48"/><rect class="cls-2" x="29.71" y="20.6" width="2.48" height="15.45"/><rect class="cls-2" x="40.13" y="13.7" width="2.48" height="22.36"/><rect class="cls-2" x="50.54" y="1.75" width="2.48" height="34.3"/><rect class="cls-3" x="12.93" y="9.76" width="2.48" height="26.3"/><rect class="cls-3" x="23.28" y="18.59" width="2.48" height="17.47"/><rect class="cls-3" x="33.69" y="23.69" width="2.48" height="12.36"/><rect class="cls-3" x="44.11" y="16.34" width="2.48" height="19.72"/><rect class="cls-3" x="54.53" y="5.15" width="2.48" height="30.9"/><path class="cls-4" d="M12.57,39.94a.72.72,0,0,1,.15.46v1.09h-.25v-.28a.8.8,0,0,1-.26.22.82.82,0,0,1-.42.11.65.65,0,0,1-.41-.13.44.44,0,0,1-.16-.34.48.48,0,0,1,.24-.44,1.07,1.07,0,0,1,.59-.14h.4v-.09c0-.28-.14-.42-.44-.42a.53.53,0,0,0-.3.07.35.35,0,0,0-.17.24l-.26,0a.54.54,0,0,1,.26-.39.87.87,0,0,1,.49-.12A.7.7,0,0,1,12.57,39.94Zm-.51.74c-.38,0-.57.14-.57.38a.25.25,0,0,0,.1.2.46.46,0,0,0,.25.07.62.62,0,0,0,.43-.16.45.45,0,0,0,.18-.35v-.14Z"/><path class="cls-4" d="M21.57,39.1v1a.61.61,0,0,1,.56-.36.68.68,0,0,1,.57.27,1,1,0,0,1,.19.62,1,1,0,0,1-.19.63.69.69,0,0,1-.58.27.58.58,0,0,1-.56-.33v.28h-.25V39.1Zm.14,1a.73.73,0,0,0-.15.48v0a.78.78,0,0,0,.13.46.44.44,0,0,0,.4.2.47.47,0,0,0,.41-.2.85.85,0,0,0,.12-.48.78.78,0,0,0-.13-.48.47.47,0,0,0-.41-.19A.43.43,0,0,0,21.71,40.15Z"/><path class="cls-4" d="M33.07,39.9a.67.67,0,0,1,.24.46h-.26a.49.49,0,0,0-.16-.3.54.54,0,0,0-.33-.09.47.47,0,0,0-.39.19.79.79,0,0,0-.13.49.81.81,0,0,0,.13.49.51.51,0,0,0,.89-.26h.26a.82.82,0,0,1-.25.49.77.77,0,0,1-.51.17.73.73,0,0,1-.59-.26A1.09,1.09,0,0,1,32,40a.71.71,0,0,1,.59-.27A.81.81,0,0,1,33.07,39.9Z"/><path class="cls-4" d="M43.77,39.1v2.39h-.25v-.28a.58.58,0,0,1-.56.33.69.69,0,0,1-.58-.27,1,1,0,0,1-.19-.63,1,1,0,0,1,.19-.62.67.67,0,0,1,.57-.27.61.61,0,0,1,.56.36v-1Zm-1.19,1.06a1,1,0,0,0,0,1,.47.47,0,0,0,.41.2.46.46,0,0,0,.4-.2.78.78,0,0,0,.12-.46v0a.78.78,0,0,0-.14-.48A.45.45,0,0,0,43,40,.48.48,0,0,0,42.58,40.16Z"/><path class="cls-4" d="M53.94,40a1.13,1.13,0,0,1,.19.69H52.79a.77.77,0,0,0,.16.44.46.46,0,0,0,.38.16.53.53,0,0,0,.34-.11.73.73,0,0,0,.17-.26h.26a.77.77,0,0,1-.23.4.81.81,0,0,1-.54.19.74.74,0,0,1-.58-.24.9.9,0,0,1-.23-.66.87.87,0,0,1,.22-.62.69.69,0,0,1,.58-.27A.72.72,0,0,1,53.94,40Zm-1,.09a.69.69,0,0,0-.16.39h1.06c0-.36-.21-.54-.53-.54A.47.47,0,0,0,53,40.12Z"/><path class="cls-4" d="M1.45,35.17a1.6,1.6,0,0,1,.19.85,1.58,1.58,0,0,1-.19.84.67.67,0,0,1-.63.37.67.67,0,0,1-.63-.37,2,2,0,0,1,0-1.69.67.67,0,0,1,.63-.37A.67.67,0,0,1,1.45,35.17Zm-1.08.2a1.61,1.61,0,0,0-.1.65,1.67,1.67,0,0,0,.1.65A.46.46,0,0,0,.82,37a.46.46,0,0,0,.45-.33,1.67,1.67,0,0,0,.1-.65,1.61,1.61,0,0,0-.1-.65A.46.46,0,0,0,.82,35,.46.46,0,0,0,.37,35.37Z"/><path class="cls-4" d="M1.13,23.25v2.34H.86v-2a1.37,1.37,0,0,1-.56.33v-.27a1.56,1.56,0,0,0,.33-.14,2.47,2.47,0,0,0,.29-.24Z"/><path class="cls-4" d="M1.39,11.79a.66.66,0,0,1,.21.49.78.78,0,0,1-.23.55,2.51,2.51,0,0,1-.49.38q-.45.3-.51.54H1.6V14H0a.81.81,0,0,1,.23-.58A2.55,2.55,0,0,1,.78,13a3.71,3.71,0,0,0,.37-.29.61.61,0,0,0,.18-.42A.4.4,0,0,0,1.2,12a.52.52,0,0,0-.36-.12A.44.44,0,0,0,.47,12a.73.73,0,0,0-.14.47H.06a.84.84,0,0,1,.22-.62.73.73,0,0,1,.57-.24A.76.76,0,0,1,1.39,11.79Z"/><path class="cls-4" d="M1.39.17a.6.6,0,0,1,.2.47.51.51,0,0,1-.38.52.62.62,0,0,1,.31.2.51.51,0,0,1,.12.35.71.71,0,0,1-.22.52.83.83,0,0,1-.59.2.81.81,0,0,1-.55-.17A.78.78,0,0,1,0,1.66H.27a.52.52,0,0,0,.19.42.57.57,0,0,0,.37.12.54.54,0,0,0,.4-.14.48.48,0,0,0,.14-.34.41.41,0,0,0-.14-.33.54.54,0,0,0-.38-.12H.66V1.06H.84A.53.53,0,0,0,1.2,1,.4.4,0,0,0,1.32.65.38.38,0,0,0,1.2.35.48.48,0,0,0,.85.23.49.49,0,0,0,.48.36.51.51,0,0,0,.32.72H.05A.81.81,0,0,1,.3.19.76.76,0,0,1,.84,0,.86.86,0,0,1,1.39.17Z"/></svg>