<svg id="图层_1" data-name="图层 1" xmlns="http://www.w3.org/2000/svg" viewBox="0 0 60 41.83"><defs><style>.cls-1{fill:#dde2ec;}.cls-2{fill:#0376e3;}.cls-3{fill:#8cd31a;}.cls-4{fill:#b3c0ce;}</style></defs><title>bar</title><rect class="cls-1" x="5.24" y="0.12" width="0.25" height="35.55"/><rect class="cls-1" x="4.68" y="35.55" width="55.2" height="0.25"/><rect class="cls-1" x="14.33" y="35.52" width="0.25" height="0.85"/><rect class="cls-1" x="5.24" y="35.52" width="0.25" height="0.85"/><rect class="cls-1" x="23.41" y="35.52" width="0.25" height="0.85"/><rect class="cls-1" x="32.5" y="35.52" width="0.25" height="0.85"/><rect class="cls-1" x="41.58" y="35.52" width="0.25" height="0.85"/><rect class="cls-1" x="50.67" y="35.52" width="0.25" height="0.85"/><rect class="cls-1" x="59.75" y="35.52" width="0.25" height="0.85"/><rect class="cls-1" x="4.53" y="30.28" width="0.85" height="0.25"/><rect class="cls-1" x="4.53" y="35.55" width="0.85" height="0.25"/><rect class="cls-1" x="4.53" y="21.9" width="0.85" height="0.25"/><rect class="cls-1" x="4.53" y="13.52" width="0.85" height="0.25"/><rect class="cls-1" x="4.53" y="5.14" width="0.85" height="0.25"/><rect class="cls-1" x="4.53" width="0.85" height="0.25"/><rect class="cls-2" x="5.51" y="2.36" width="35.69" height="2.5"/><rect class="cls-3" x="5.51" y="5.51" width="32.62" height="2.5"/><rect class="cls-2" x="5.51" y="10.82" width="22.1" height="2.5"/><rect class="cls-3" x="5.51" y="13.97" width="17.58" height="2.5"/><rect class="cls-2" x="5.51" y="19.2" width="35.16" height="2.5"/><rect class="cls-3" x="5.51" y="22.35" width="25.64" height="2.5"/><rect class="cls-2" x="5.51" y="27.58" width="52.55" height="2.5"/><rect class="cls-3" x="5.51" y="30.73" width="47.01" height="2.5"/><path class="cls-4" d="M17.28,39.42v2.36H17v-2a1.22,1.22,0,0,1-.55.32V39.8a2.16,2.16,0,0,0,.33-.14,1.31,1.31,0,0,0,.28-.24Z"/><path class="cls-4" d="M28,39.56a.63.63,0,0,1,.21.5.8.8,0,0,1-.23.55,2.88,2.88,0,0,1-.49.38,1.27,1.27,0,0,0-.52.55h1.24v.24H26.62a.85.85,0,0,1,.23-.59,3.75,3.75,0,0,1,.52-.42,3.44,3.44,0,0,0,.37-.29.61.61,0,0,0,.18-.42.42.42,0,0,0-.13-.34.52.52,0,0,0-.36-.12.41.41,0,0,0-.37.17.65.65,0,0,0-.15.47h-.27a.86.86,0,0,1,.22-.63.84.84,0,0,1,1.12,0Z"/><path class="cls-4" d="M38.41,39.54a.6.6,0,0,1,.2.47.5.5,0,0,1-.38.53.58.58,0,0,1,.31.2.53.53,0,0,1,.12.35.68.68,0,0,1-.22.53.95.95,0,0,1-1.15,0,.85.85,0,0,1-.28-.6h.28a.53.53,0,0,0,.18.42.57.57,0,0,0,.37.12.6.6,0,0,0,.41-.14.48.48,0,0,0,.14-.35.39.39,0,0,0-.14-.33.54.54,0,0,0-.38-.12h-.19v-.21h.18a.53.53,0,0,0,.36-.1.42.42,0,0,0,.13-.31.41.41,0,0,0-.13-.31.5.5,0,0,0-.36-.11.53.53,0,0,0-.37.12.6.6,0,0,0-.16.37h-.27a.81.81,0,0,1,.25-.54.77.77,0,0,1,.55-.19A.88.88,0,0,1,38.41,39.54Z"/><path class="cls-4" d="M48.8,39.42V41h.38v.22H48.8v.54h-.26v-.54H47.36V41l1.19-1.56ZM47.58,41h1V39.77h0Z"/><path class="cls-4" d="M59.43,39.42v.24H58.28l-.08.79h0a.64.64,0,0,1,.25-.18.8.8,0,0,1,.3-.06.71.71,0,0,1,.55.22.8.8,0,0,1,.21.59.75.75,0,0,1-.25.59.88.88,0,0,1-.59.22.84.84,0,0,1-.53-.17.66.66,0,0,1-.27-.52h.26a.52.52,0,0,0,.18.35.59.59,0,0,0,.36.1.54.54,0,0,0,.41-.16.52.52,0,0,0,.16-.4.6.6,0,0,0-.15-.44.52.52,0,0,0-.4-.15.6.6,0,0,0-.3.07.43.43,0,0,0-.21.21h-.26l.12-1.3Z"/><path class="cls-4" d="M7.18,39.72a2,2,0,0,1,0,1.7.7.7,0,0,1-.64.38.68.68,0,0,1-.63-.38,2,2,0,0,1,0-1.7.68.68,0,0,1,.63-.38A.7.7,0,0,1,7.18,39.72Zm-1.09.2a1.61,1.61,0,0,0-.1.65,1.73,1.73,0,0,0,.1.66.47.47,0,0,0,.91,0,1.73,1.73,0,0,0,.1-.66,1.61,1.61,0,0,0-.1-.65.47.47,0,0,0-.91,0Z"/><path class="cls-4" d="M1.44,3.38a.68.68,0,0,1,.16.47V5H1.35V4.66a1,1,0,0,1-.26.23A.88.88,0,0,1,.66,5a.59.59,0,0,1-.41-.13.41.41,0,0,1-.16-.34.49.49,0,0,1,.23-.44,1.2,1.2,0,0,1,.6-.15h.41V3.84c0-.29-.15-.43-.45-.43a.56.56,0,0,0-.3.07.42.42,0,0,0-.18.25l-.26,0a.58.58,0,0,1,.27-.4A.89.89,0,0,1,.9,3.19.68.68,0,0,1,1.44,3.38Zm-.5.75c-.39,0-.58.13-.58.38a.25.25,0,0,0,.1.2.4.4,0,0,0,.26.07.64.64,0,0,0,.43-.16.45.45,0,0,0,.18-.35V4.12Z"/><path class="cls-4" d="M.33,11.75v1A.62.62,0,0,1,.9,12.4a.67.67,0,0,1,.57.28,1,1,0,0,1,.19.62,1,1,0,0,1-.19.63.71.71,0,0,1-.59.27.59.59,0,0,1-.56-.32v.28H.07V11.75ZM.47,12.8a.77.77,0,0,0-.15.49v0a.77.77,0,0,0,.13.47.47.47,0,0,0,.4.2.47.47,0,0,0,.42-.21.83.83,0,0,0,.12-.48.74.74,0,0,0-.13-.48.49.49,0,0,0-.42-.2A.43.43,0,0,0,.47,12.8Z"/><path class="cls-4" d="M1.44,21.76a.71.71,0,0,1,.24.47H1.42a.44.44,0,0,0-.16-.3.54.54,0,0,0-.33-.09A.48.48,0,0,0,.54,22a.85.85,0,0,0-.14.5A.73.73,0,0,0,.54,23a.47.47,0,0,0,.39.19.46.46,0,0,0,.5-.45h.26a.82.82,0,0,1-.25.5.77.77,0,0,1-.51.17.74.74,0,0,1-.6-.26,1,1,0,0,1-.2-.64,1,1,0,0,1,.2-.63.72.72,0,0,1,.6-.28A.81.81,0,0,1,1.44,21.76Z"/><path class="cls-4" d="M1.6,30.18v2.4H1.35V32.3a.6.6,0,0,1-.57.33.71.71,0,0,1-.59-.27A1,1,0,0,1,0,31.72a1,1,0,0,1,.19-.62.68.68,0,0,1,.57-.27.62.62,0,0,1,.57.36v-1ZM.4,31.24a.78.78,0,0,0-.13.48.87.87,0,0,0,.12.49.5.5,0,0,0,.42.2.44.44,0,0,0,.4-.2.81.81,0,0,0,.13-.46v0a.74.74,0,0,0-.15-.48.42.42,0,0,0-.37-.18A.47.47,0,0,0,.4,31.24Z"/></svg>