<svg id="图层_1" data-name="图层 1" xmlns="http://www.w3.org/2000/svg" viewBox="0 0 52 47.77"><defs><style>.cls-1{fill:#0376e3;}.cls-2{fill:#8cd31a;}.cls-3{fill:#fd0;}.cls-4{fill:#c27aeb;}.cls-5{fill:#fff;}</style></defs><title>funnel</title><polygon class="cls-1" points="45.74 11.25 6.32 11.25 0 0 52 0 45.74 11.25"/><polygon class="cls-2" points="36.1 23.32 15.8 23.32 6.14 12.06 45.74 12.06 36.1 23.32"/><polygon class="cls-3" points="32.92 35.54 19.14 35.54 15.8 24.29 36.1 24.29 32.92 35.54"/><polygon class="cls-4" points="27.83 47.77 24.25 47.77 18.95 36.52 32.92 36.52 27.83 47.77"/><path class="cls-5" d="M25.23,15.67v1.48a.9.9,0,0,1,.82-.53,1,1,0,0,1,.84.4,1.47,1.47,0,0,1,.28.91,1.51,1.51,0,0,1-.28.93,1,1,0,0,1-.85.39.85.85,0,0,1-.83-.48v.41h-.37V15.67Zm.2,1.54a1.07,1.07,0,0,0-.21.71v0a1.16,1.16,0,0,0,.18.68.67.67,0,0,0,.59.29.71.71,0,0,0,.61-.29,1.31,1.31,0,0,0,.17-.71,1.19,1.19,0,0,0-.18-.7.73.73,0,0,0-.62-.29A.64.64,0,0,0,25.43,17.21Z"/><path class="cls-5" d="M27.07,38.63v3.52h-.36v-.41a.87.87,0,0,1-.83.47,1,1,0,0,1-.85-.39,1.45,1.45,0,0,1-.28-.93A1.4,1.4,0,0,1,25,40a1,1,0,0,1,.83-.4.91.91,0,0,1,.83.52V38.63Zm-1.74,1.56a1.12,1.12,0,0,0-.19.7,1.22,1.22,0,0,0,.18.71.72.72,0,0,0,.61.3.68.68,0,0,0,.58-.29,1.19,1.19,0,0,0,.19-.68v0a1.2,1.2,0,0,0-.21-.71.66.66,0,0,0-.55-.27A.7.7,0,0,0,25.33,40.19Z"/><path class="cls-5" d="M26.79,4.73a1,1,0,0,1,.22.68V7h-.36V6.59a1.17,1.17,0,0,1-.39.34,1.26,1.26,0,0,1-.62.15.88.88,0,0,1-.6-.19.64.64,0,0,1-.23-.5.7.7,0,0,1,.34-.64A1.55,1.55,0,0,1,26,5.54h.6V5.4A.57.57,0,0,0,26,4.77a.79.79,0,0,0-.45.11.56.56,0,0,0-.25.36l-.38,0a.85.85,0,0,1,.39-.59A1.33,1.33,0,0,1,26,4.45,1,1,0,0,1,26.79,4.73Zm-.74,1.1c-.56,0-.84.19-.84.55a.31.31,0,0,0,.14.28.55.55,0,0,0,.37.12.92.92,0,0,0,.63-.24A.66.66,0,0,0,26.62,6V5.82Z"/><path class="cls-5" d="M26.76,29.18a1,1,0,0,1,.35.68h-.38a.72.72,0,0,0-.23-.44.84.84,0,0,0-.49-.14.67.67,0,0,0-.57.28,1.14,1.14,0,0,0-.2.72,1.1,1.1,0,0,0,.2.72.68.68,0,0,0,.57.27.67.67,0,0,0,.73-.65h.38a1.14,1.14,0,0,1-.37.73,1.1,1.1,0,0,1-.74.24,1.05,1.05,0,0,1-.87-.38,1.36,1.36,0,0,1-.3-.92,1.4,1.4,0,0,1,.3-.93A1,1,0,0,1,26,29,1.17,1.17,0,0,1,26.76,29.18Z"/></svg>