<svg xmlns="http://www.w3.org/2000/svg" width="142" height="90" viewBox="0 0 142 90">
  <g id="组_20825" data-name="组 20825" transform="translate(18013 4048)">
    <rect id="矩形_6941" data-name="矩形 6941" width="142" height="90" transform="translate(-18013 -4048)" fill="none"/>
    <g id="组_20824" data-name="组 20824" transform="translate(-18012.684 -4041)">
      <g id="组_20817" data-name="组 20817" transform="translate(15.685 44.286)">
        <g id="组_20810" data-name="组 20810" transform="translate(0 0.413)">
          <path id="路径_17623" data-name="路径 17623" d="M7.832,16.108V36.587H4.7V19.863A11.147,11.147,0,0,1,0,22.446v-3.1a12.053,12.053,0,0,0,2.9-1.205,11.993,11.993,0,0,0,2.58-2.033Z" transform="translate(0 -16.108)" fill="#0676e3"/>
        </g>
        <g id="组_20811" data-name="组 20811" transform="translate(12.083 0.005)">
          <path id="路径_17624" data-name="路径 17624" d="M19.216,17.565a5.769,5.769,0,0,1,1.865,4.42,7.1,7.1,0,0,1-2.008,4.846,28.572,28.572,0,0,1-4.246,3.3q-3.312,2.2-3.959,3.873H21.11v2.754H7a7.793,7.793,0,0,1,2.036-5.364,26.137,26.137,0,0,1,4.617-3.728,21.294,21.294,0,0,0,2.927-2.353,4.993,4.993,0,0,0,1.4-3.355,3.31,3.31,0,0,0-.946-2.581,4.029,4.029,0,0,0-2.781-.862,3.406,3.406,0,0,0-2.927,1.321,6.231,6.231,0,0,0-1.089,3.755H7.113A7.873,7.873,0,0,1,9.09,18.083a6.706,6.706,0,0,1,5.278-2.208,6.958,6.958,0,0,1,4.848,1.69Z" transform="translate(-6.999 -15.868)" fill="#0676e3"/>
        </g>
        <g id="组_20812" data-name="组 20812" transform="translate(31.374)">
          <path id="路径_17625" data-name="路径 17625" d="M29.317,17.367a5.11,5.11,0,0,1,1.839,4.13A4.443,4.443,0,0,1,27.77,26a5.713,5.713,0,0,1,2.752,1.692,4.331,4.331,0,0,1,1.034,2.983,6.079,6.079,0,0,1-1.951,4.646,7.9,7.9,0,0,1-5.363,1.837,7.615,7.615,0,0,1-5.05-1.607A7.217,7.217,0,0,1,16.786,30.3H19.94a4.214,4.214,0,0,0,1.347,3.184,4.146,4.146,0,0,0,2.927,1.034A4.509,4.509,0,0,0,27.4,33.372a3.463,3.463,0,0,0,1.062-2.554,3.151,3.151,0,0,0-1.119-2.668,4.723,4.723,0,0,0-3.07-.86h-1.49V24.939h1.462a4.248,4.248,0,0,0,2.838-.832,3.005,3.005,0,0,0,.976-2.381,3.083,3.083,0,0,0-.891-2.352,4.024,4.024,0,0,0-2.781-.832,4.153,4.153,0,0,0-2.9.946,4.226,4.226,0,0,0-1.231,2.838h-3.07a6.683,6.683,0,0,1,2.265-4.762,7.007,7.007,0,0,1,4.9-1.69,7.68,7.68,0,0,1,4.961,1.493Z" transform="translate(-16.786 -15.864)" fill="#0676e3"/>
        </g>
        <g id="组_20813" data-name="组 20813" transform="translate(48.983 17.123)">
          <path id="路径_17626" data-name="路径 17626" d="M32.148,25.786l-2.255,7.623h-3.5l1.568-7.623Z" transform="translate(-26.393 -25.786)" fill="#0676e3"/>
        </g>
        <g id="组_20814" data-name="组 20814" transform="translate(58.231 0.413)">
          <path id="路径_17627" data-name="路径 17627" d="M44.085,16.108V29.646h3.1v2.493h-3.1v4.448H41.1V32.139H31.12V29.187l10.1-13.079ZM33.674,29.646H41.1V20.065h-.085Z" transform="translate(-31.12 -16.108)" fill="#0676e3"/>
        </g>
        <g id="组_20815" data-name="组 20815" transform="translate(77.514 0.413)">
          <path id="路径_17628" data-name="路径 17628" d="M55.3,16.108V18.86H45.49l-.6,5.91h.085a5.388,5.388,0,0,1,2.181-1.407A6.509,6.509,0,0,1,49.68,22.9a6.231,6.231,0,0,1,4.7,1.892,7.22,7.22,0,0,1,1.835,5.192,6.58,6.58,0,0,1-2.353,5.192,7.99,7.99,0,0,1-5.249,1.809,7.616,7.616,0,0,1-4.734-1.521,5.924,5.924,0,0,1-2.407-4.5H44.54a3.537,3.537,0,0,0,1.348,2.611,4.479,4.479,0,0,0,2.752.775,4.6,4.6,0,0,0,3.185-1.177,4.089,4.089,0,0,0,1.291-3.154A4.744,4.744,0,0,0,52,26.662a4.066,4.066,0,0,0-3.154-1.205,5.21,5.21,0,0,0-2.381.487,3.6,3.6,0,0,0-1.694,1.637H41.847l1.117-11.473Z" transform="translate(-41.472 -16.108)" fill="#0676e3"/>
        </g>
        <g id="组_20816" data-name="组 20816" transform="translate(96.133 0.01)">
          <path id="路径_17629" data-name="路径 17629" d="M65.843,21.438H62.8a3.421,3.421,0,0,0-3.728-2.982,3.77,3.77,0,0,0-3.386,2.093,9.112,9.112,0,0,0-1.233,4.964,2.136,2.136,0,0,0,.028.373H54.6a5.207,5.207,0,0,1,2.179-2.008,5.938,5.938,0,0,1,2.84-.63,6.348,6.348,0,0,1,4.819,1.892,7.1,7.1,0,0,1,1.778,4.96,6.791,6.791,0,0,1-2.037,5.05,7.148,7.148,0,0,1-5.1,2.008,6.6,6.6,0,0,1-5.74-2.758,12.312,12.312,0,0,1-1.894-7.314A14.339,14.339,0,0,1,53.481,19,6.419,6.419,0,0,1,59.1,15.875C63.061,15.875,65.326,17.71,65.843,21.438Zm-9.9,5.537a4.521,4.521,0,0,0-1.117,3.213,4.385,4.385,0,0,0,1.148,3.184,4.257,4.257,0,0,0,5.993-.057A4.622,4.622,0,0,0,63.148,30.1a4.247,4.247,0,0,0-1.121-3.125,4.438,4.438,0,0,0-6.081,0Z" transform="translate(-51.424 -15.874)" fill="#0676e3"/>
        </g>
      </g>
      <g id="组_20822" data-name="组 20822" transform="translate(57.373 11)">
        <g id="组_20821" data-name="组 20821">
          <g id="组_20818" data-name="组 20818">
            <path id="路径_17630" data-name="路径 17630" d="M35.177,0,29.133,5.869l6.923,7.779H33.265L27.719,7.224l-1.777,1.7v4.721H23.859V0h2.083V6.595L32.537,0Z" transform="translate(-23.859)" fill="#475f7b"/>
          </g>
          <g id="组_20819" data-name="组 20819" transform="translate(13.547)">
            <path id="路径_17631" data-name="路径 17631" d="M35.544,0C38.8,0,40.42,1.375,40.42,4.148q0,4.186-4.914,4.188H31.971v5.312H29.888V0ZM31.971,6.555h3.4a3.579,3.579,0,0,0,2.256-.573,2.258,2.258,0,0,0,.708-1.834,2.087,2.087,0,0,0-.728-1.8,3.563,3.563,0,0,0-2.236-.573h-3.4Z" transform="translate(-29.888)" fill="#475f7b"/>
          </g>
          <g id="组_20820" data-name="组 20820" transform="translate(26.059)">
            <path id="路径_17632" data-name="路径 17632" d="M37.523,0V13.648H35.456V0Z" transform="translate(-35.456)" fill="#475f7b"/>
          </g>
        </g>
      </g>
    </g>
  </g>
</svg>
