<svg id="图层_1" data-name="图层 1" xmlns="http://www.w3.org/2000/svg" viewBox="0 0 60 41.81"><defs><style>.cls-1{fill:#dde2ec;}.cls-2{fill:#b3c0ce;}.cls-3{opacity:0.23;}.cls-4{fill:#177fdd;}.cls-5{fill:#8cd31a;}.cls-6{fill:#c6ff7b;}.cls-7{fill:#73d500;}.cls-8{fill:#0376e3;}.cls-9{fill:#7bc3ff;}</style></defs><title>line</title><rect class="cls-1" x="4.64" y="1.09" width="0.25" height="35.97"/><rect class="cls-1" x="4.53" y="36.94" width="53.49" height="0.25"/><rect class="cls-1" x="57.77" y="27.95" width="0.25" height="0.25"/><path class="cls-1" d="M57.28,28.2h-.49V28h.49Zm-1,0H55.8V28h.49Zm-1,0h-.49V28h.49Zm-1,0h-.49V28h.49Zm-1,0h-.49V28h.49Zm-1,0h-.49V28h.49Zm-1,0h-.49V28h.49Zm-1,0h-.49V28h.49Zm-1,0h-.49V28h.49Zm-1,0h-.49V28h.49Zm-1,0h-.49V28h.49Zm-1,0H46V28h.49Zm-1,0H45V28h.49Zm-1,0H44V28h.49Zm-1,0H43V28h.49Zm-1,0H42V28h.49Zm-1,0H41V28h.49Zm-1,0H40V28h.49Zm-1,0h-.5V28h.5Zm-1,0h-.49V28h.49Zm-1,0h-.5V28h.5Zm-1,0H36.1V28h.49Zm-1,0h-.5V28h.5Zm-1,0h-.49V28h.49Zm-1,0h-.5V28h.5Zm-1,0h-.49V28h.49Zm-1,0h-.5V28h.5Zm-1,0h-.49V28h.49Zm-1,0h-.5V28h.5Zm-1,0h-.49V28h.49Zm-1,0h-.5V28h.5Zm-1,0h-.49V28h.49Zm-1,0h-.5V28h.5Zm-1,0h-.49V28h.49Zm-1,0h-.5V28h.5Zm-1,0h-.49V28h.49Zm-1,0h-.5V28h.5Zm-1,0h-.49V28h.49Zm-1,0h-.5V28h.5Zm-1,0h-.49V28h.49Zm-1,0h-.5V28h.5Zm-1,0H16.4V28h.49Zm-1,0h-.5V28h.5Zm-1,0h-.49V28h.49Zm-1,0h-.5V28h.5Zm-1,0h-.49V28H13Zm-1,0h-.5V28H12Zm-1,0h-.49V28H11Zm-1,0H9.5V28H10Zm-1,0H8.52V28H9Zm-1,0h-.5V28H8Zm-1,0H6.55V28H7Zm-1,0h-.5V28h.5Z"/><rect class="cls-1" x="4.82" y="27.95" width="0.25" height="0.25"/><rect class="cls-1" x="57.77" y="18.95" width="0.25" height="0.25"/><path class="cls-1" d="M57.28,19.2h-.49V19h.49Zm-1,0H55.8V19h.49Zm-1,0h-.49V19h.49Zm-1,0h-.49V19h.49Zm-1,0h-.49V19h.49Zm-1,0h-.49V19h.49Zm-1,0h-.49V19h.49Zm-1,0h-.49V19h.49Zm-1,0h-.49V19h.49Zm-1,0h-.49V19h.49Zm-1,0h-.49V19h.49Zm-1,0H46V19h.49Zm-1,0H45V19h.49Zm-1,0H44V19h.49Zm-1,0H43V19h.49Zm-1,0H42V19h.49Zm-1,0H41V19h.49Zm-1,0H40V19h.49Zm-1,0h-.5V19h.5Zm-1,0h-.49V19h.49Zm-1,0h-.5V19h.5Zm-1,0H36.1V19h.49Zm-1,0h-.5V19h.5Zm-1,0h-.49V19h.49Zm-1,0h-.5V19h.5Zm-1,0h-.49V19h.49Zm-1,0h-.5V19h.5Zm-1,0h-.49V19h.49Zm-1,0h-.5V19h.5Zm-1,0h-.49V19h.49Zm-1,0h-.5V19h.5Zm-1,0h-.49V19h.49Zm-1,0h-.5V19h.5Zm-1,0h-.49V19h.49Zm-1,0h-.5V19h.5Zm-1,0h-.49V19h.49Zm-1,0h-.5V19h.5Zm-1,0h-.49V19h.49Zm-1,0h-.5V19h.5Zm-1,0h-.49V19h.49Zm-1,0h-.5V19h.5Zm-1,0H16.4V19h.49Zm-1,0h-.5V19h.5Zm-1,0h-.49V19h.49Zm-1,0h-.5V19h.5Zm-1,0h-.49V19H13Zm-1,0h-.5V19H12Zm-1,0h-.49V19H11Zm-1,0H9.5V19H10Zm-1,0H8.52V19H9Zm-1,0h-.5V19H8Zm-1,0H6.55V19H7Zm-1,0h-.5V19h.5Z"/><rect class="cls-1" x="4.82" y="18.95" width="0.25" height="0.25"/><rect class="cls-1" x="57.77" y="9.96" width="0.25" height="0.25"/><path class="cls-1" d="M57.28,10.21h-.49V10h.49Zm-1,0H55.8V10h.49Zm-1,0h-.49V10h.49Zm-1,0h-.49V10h.49Zm-1,0h-.49V10h.49Zm-1,0h-.49V10h.49Zm-1,0h-.49V10h.49Zm-1,0h-.49V10h.49Zm-1,0h-.49V10h.49Zm-1,0h-.49V10h.49Zm-1,0h-.49V10h.49Zm-1,0H46V10h.49Zm-1,0H45V10h.49Zm-1,0H44V10h.49Zm-1,0H43V10h.49Zm-1,0H42V10h.49Zm-1,0H41V10h.49Zm-1,0H40V10h.49Zm-1,0h-.5V10h.5Zm-1,0h-.49V10h.49Zm-1,0h-.5V10h.5Zm-1,0H36.1V10h.49Zm-1,0h-.5V10h.5Zm-1,0h-.49V10h.49Zm-1,0h-.5V10h.5Zm-1,0h-.49V10h.49Zm-1,0h-.5V10h.5Zm-1,0h-.49V10h.49Zm-1,0h-.5V10h.5Zm-1,0h-.49V10h.49Zm-1,0h-.5V10h.5Zm-1,0h-.49V10h.49Zm-1,0h-.5V10h.5Zm-1,0h-.49V10h.49Zm-1,0h-.5V10h.5Zm-1,0h-.49V10h.49Zm-1,0h-.5V10h.5Zm-1,0h-.49V10h.49Zm-1,0h-.5V10h.5Zm-1,0h-.49V10h.49Zm-1,0h-.5V10h.5Zm-1,0H16.4V10h.49Zm-1,0h-.5V10h.5Zm-1,0h-.49V10h.49Zm-1,0h-.5V10h.5Zm-1,0h-.49V10H13Zm-1,0h-.5V10H12Zm-1,0h-.49V10H11Zm-1,0H9.5V10H10Zm-1,0H8.52V10H9Zm-1,0h-.5V10H8Zm-1,0H6.55V10H7Zm-1,0h-.5V10h.5Z"/><rect class="cls-1" x="4.82" y="9.96" width="0.25" height="0.25"/><rect class="cls-1" x="57.77" y="0.97" width="0.25" height="0.25"/><path class="cls-1" d="M57.28,1.22h-.49V1h.49Zm-1,0H55.8V1h.49Zm-1,0h-.49V1h.49Zm-1,0h-.49V1h.49Zm-1,0h-.49V1h.49Zm-1,0h-.49V1h.49Zm-1,0h-.49V1h.49Zm-1,0h-.49V1h.49Zm-1,0h-.49V1h.49Zm-1,0h-.49V1h.49Zm-1,0h-.49V1h.49Zm-1,0H46V1h.49Zm-1,0H45V1h.49Zm-1,0H44V1h.49Zm-1,0H43V1h.49Zm-1,0H42V1h.49Zm-1,0H41V1h.49Zm-1,0H40V1h.49Zm-1,0h-.5V1h.5Zm-1,0h-.49V1h.49Zm-1,0h-.5V1h.5Zm-1,0H36.1V1h.49Zm-1,0h-.5V1h.5Zm-1,0h-.49V1h.49Zm-1,0h-.5V1h.5Zm-1,0h-.49V1h.49Zm-1,0h-.5V1h.5Zm-1,0h-.49V1h.49Zm-1,0h-.5V1h.5Zm-1,0h-.49V1h.49Zm-1,0h-.5V1h.5Zm-1,0h-.49V1h.49Zm-1,0h-.5V1h.5Zm-1,0h-.49V1h.49Zm-1,0h-.5V1h.5Zm-1,0h-.49V1h.49Zm-1,0h-.5V1h.5Zm-1,0h-.49V1h.49Zm-1,0h-.5V1h.5Zm-1,0h-.49V1h.49Zm-1,0h-.5V1h.5Zm-1,0H16.4V1h.49Zm-1,0h-.5V1h.5Zm-1,0h-.49V1h.49Zm-1,0h-.5V1h.5Zm-1,0h-.49V1H13Zm-1,0h-.5V1H12Zm-1,0h-.49V1H11Zm-1,0H9.5V1H10Zm-1,0H8.52V1H9Zm-1,0h-.5V1H8Zm-1,0H6.55V1H7Zm-1,0h-.5V1h.5Z"/><rect class="cls-1" x="4.82" y="0.97" width="0.25" height="0.25"/><rect class="cls-1" x="18" y="36.82" width="0.25" height="0.25"/><path class="cls-1" d="M18.25,36.33H18v-.49h.25Zm0-1H18v-.5h.25Zm0-1H18v-.49h.25Zm0-1H18v-.49h.25Zm0-1H18v-.49h.25Zm0-1H18v-.49h.25Zm0-1H18V30h.25Zm0-1H18V29h.25Zm0-1H18V28h.25Zm0-1H18V27h.25Zm0-1H18V26h.25Zm0-1H18V25h.25Zm0-1H18v-.49h.25Zm0-1H18v-.49h.25Zm0-1H18V22.1h.25Zm0-1H18v-.49h.25Zm0-1H18v-.49h.25Zm0-1H18v-.49h.25Zm0-1H18v-.5h.25Zm0-1H18v-.49h.25Zm0-1H18v-.49h.25Zm0-1H18v-.49h.25Zm0-1H18v-.49h.25Zm0-1H18v-.49h.25Zm0-1H18v-.49h.25Zm0-1H18v-.49h.25Zm0-1H18v-.49h.25Zm0-1H18V9.34h.25Zm0-1H18V8.36h.25Zm0-1H18V7.38h.25Zm0-1H18V6.4h.25Zm0-1H18V5.42h.25Zm0-1H18V4.44h.25Zm0-1H18V3.46h.25Zm0-1H18V2.48h.25Zm0-1H18V1.49h.25Z"/><rect class="cls-1" x="18" y="0.76" width="0.25" height="0.25"/><rect class="cls-1" x="31.3" y="36.82" width="0.25" height="0.25"/><path class="cls-1" d="M31.54,36.33H31.3v-.49h.24Zm0-1H31.3v-.5h.24Zm0-1H31.3v-.49h.24Zm0-1H31.3v-.49h.24Zm0-1H31.3v-.49h.24Zm0-1H31.3v-.49h.24Zm0-1H31.3V30h.24Zm0-1H31.3V29h.24Zm0-1H31.3V28h.24Zm0-1H31.3V27h.24Zm0-1H31.3V26h.24Zm0-1H31.3V25h.24Zm0-1H31.3v-.49h.24Zm0-1H31.3v-.49h.24Zm0-1H31.3V22.1h.24Zm0-1H31.3v-.49h.24Zm0-1H31.3v-.49h.24Zm0-1H31.3v-.49h.24Zm0-1H31.3v-.5h.24Zm0-1H31.3v-.49h.24Zm0-1H31.3v-.49h.24Zm0-1H31.3v-.49h.24Zm0-1H31.3v-.49h.24Zm0-1H31.3v-.49h.24Zm0-1H31.3v-.49h.24Zm0-1H31.3v-.49h.24Zm0-1H31.3v-.49h.24Zm0-1H31.3V9.34h.24Zm0-1H31.3V8.36h.24Zm0-1H31.3V7.38h.24Zm0-1H31.3V6.4h.24Zm0-1H31.3V5.42h.24Zm0-1H31.3V4.44h.24Zm0-1H31.3V3.46h.24Zm0-1H31.3V2.48h.24Zm0-1H31.3V1.49h.24Z"/><rect class="cls-1" x="31.3" y="0.76" width="0.25" height="0.25"/><rect class="cls-1" x="44.6" y="36.82" width="0.25" height="0.25"/><path class="cls-1" d="M44.84,36.33H44.6v-.49h.24Zm0-1H44.6v-.5h.24Zm0-1H44.6v-.49h.24Zm0-1H44.6v-.49h.24Zm0-1H44.6v-.49h.24Zm0-1H44.6v-.49h.24Zm0-1H44.6V30h.24Zm0-1H44.6V29h.24Zm0-1H44.6V28h.24Zm0-1H44.6V27h.24Zm0-1H44.6V26h.24Zm0-1H44.6V25h.24Zm0-1H44.6v-.49h.24Zm0-1H44.6v-.49h.24Zm0-1H44.6V22.1h.24Zm0-1H44.6v-.49h.24Zm0-1H44.6v-.49h.24Zm0-1H44.6v-.49h.24Zm0-1H44.6v-.5h.24Zm0-1H44.6v-.49h.24Zm0-1H44.6v-.49h.24Zm0-1H44.6v-.49h.24Zm0-1H44.6v-.49h.24Zm0-1H44.6v-.49h.24Zm0-1H44.6v-.49h.24Zm0-1H44.6v-.49h.24Zm0-1H44.6v-.49h.24Zm0-1H44.6V9.34h.24Zm0-1H44.6V8.36h.24Zm0-1H44.6V7.38h.24Zm0-1H44.6V6.4h.24Zm0-1H44.6V5.42h.24Zm0-1H44.6V4.44h.24Zm0-1H44.6V3.46h.24Zm0-1H44.6V2.48h.24Zm0-1H44.6V1.49h.24Z"/><rect class="cls-1" x="44.6" y="0.76" width="0.25" height="0.25"/><rect class="cls-1" x="57.9" y="36.82" width="0.25" height="0.25"/><path class="cls-1" d="M58.14,36.33H57.9v-.49h.24Zm0-1H57.9v-.5h.24Zm0-1H57.9v-.49h.24Zm0-1H57.9v-.49h.24Zm0-1H57.9v-.49h.24Zm0-1H57.9v-.49h.24Zm0-1H57.9V30h.24Zm0-1H57.9V29h.24Zm0-1H57.9V28h.24Zm0-1H57.9V27h.24Zm0-1H57.9V26h.24Zm0-1H57.9V25h.24Zm0-1H57.9v-.49h.24Zm0-1H57.9v-.49h.24Zm0-1H57.9V22.1h.24Zm0-1H57.9v-.49h.24Zm0-1H57.9v-.49h.24Zm0-1H57.9v-.49h.24Zm0-1H57.9v-.5h.24Zm0-1H57.9v-.49h.24Zm0-1H57.9v-.49h.24Zm0-1H57.9v-.49h.24Zm0-1H57.9v-.49h.24Zm0-1H57.9v-.49h.24Zm0-1H57.9v-.49h.24Zm0-1H57.9v-.49h.24Zm0-1H57.9v-.49h.24Zm0-1H57.9V9.34h.24Zm0-1H57.9V8.36h.24Zm0-1H57.9V7.38h.24Zm0-1H57.9V6.4h.24Zm0-1H57.9V5.42h.24Zm0-1H57.9V4.44h.24Zm0-1H57.9V3.46h.24Zm0-1H57.9V2.48h.24Zm0-1H57.9V1.49h.24Z"/><rect class="cls-1" x="57.9" y="0.76" width="0.25" height="0.25"/><path class="cls-2" d="M6,40.44a.53.53,0,0,1,.13.39v.94H6v-.25a.7.7,0,0,1-.22.2.75.75,0,0,1-.37.09A.56.56,0,0,1,5,41.7a.37.37,0,0,1-.13-.29.4.4,0,0,1,.2-.38.92.92,0,0,1,.51-.12H6v-.08c0-.24-.13-.36-.38-.36a.54.54,0,0,0-.27.06.34.34,0,0,0-.14.21l-.23,0a.55.55,0,0,1,.23-.34.84.84,0,0,1,.42-.1A.59.59,0,0,1,6,40.44Zm-.43.64c-.33,0-.49.11-.49.32a.23.23,0,0,0,.08.17.38.38,0,0,0,.22.06.56.56,0,0,0,.37-.13A.41.41,0,0,0,6,41.19v-.12Z"/><path class="cls-2" d="M1.32,36a1.75,1.75,0,0,1,0,1.46.58.58,0,0,1-.54.31.59.59,0,0,1-.55-.31A1.75,1.75,0,0,1,.23,36a.6.6,0,0,1,.55-.32A.59.59,0,0,1,1.32,36Zm-.93.17a1.42,1.42,0,0,0-.09.56,1.46,1.46,0,0,0,.09.56.41.41,0,0,0,.78,0,1.71,1.71,0,0,0,.08-.56,1.66,1.66,0,0,0-.08-.56.41.41,0,0,0-.78,0Z"/><path class="cls-2" d="M1,26.92v2H.81V27.2a1.18,1.18,0,0,1-.47.28v-.23l.28-.12a1.64,1.64,0,0,0,.24-.21Z"/><path class="cls-2" d="M1.27,18.15a.6.6,0,0,1,.18.43.69.69,0,0,1-.2.47,2.32,2.32,0,0,1-.42.33,1,1,0,0,0-.44.46H1.45v.21H.11a.69.69,0,0,1,.2-.5,2.71,2.71,0,0,1,.43-.36,2.55,2.55,0,0,0,.32-.25.53.53,0,0,0,.15-.36.35.35,0,0,0-.11-.29.4.4,0,0,0-.3-.1.39.39,0,0,0-.32.14.66.66,0,0,0-.13.4H.12a.76.76,0,0,1,.19-.53A.64.64,0,0,1,.81,18,.73.73,0,0,1,1.27,18.15Z"/><path class="cls-2" d="M1.27,8.94a.51.51,0,0,1,.17.4.43.43,0,0,1-.33.45.6.6,0,0,1,.27.17.44.44,0,0,1,.1.3.58.58,0,0,1-.19.45.72.72,0,0,1-.51.18.69.69,0,0,1-.46-.15.66.66,0,0,1-.24-.52H.31a.47.47,0,0,0,.16.36.47.47,0,0,0,.31.11.46.46,0,0,0,.35-.13.37.37,0,0,0,.12-.29A.34.34,0,0,0,1.13,10a.46.46,0,0,0-.32-.1H.64V9.71H.8a.45.45,0,0,0,.3-.09.3.3,0,0,0,.11-.26.35.35,0,0,0-.1-.27A.5.5,0,0,0,.8,9a.48.48,0,0,0-.32.11.52.52,0,0,0-.13.31H.12A.64.64,0,0,1,.33,9,.68.68,0,0,1,.8,8.79.72.72,0,0,1,1.27,8.94Z"/><path class="cls-2" d="M1.23,0V1.37h.33v.19H1.23V2H1V1.56H0V1.34L1,0Zm-1,1.37H1V.3H1Z"/><path class="cls-2" d="M18.14,39.72v.86a.51.51,0,0,1,.48-.31.58.58,0,0,1,.49.24.88.88,0,0,1,.16.53.91.91,0,0,1-.16.54.61.61,0,0,1-.5.23.51.51,0,0,1-.49-.28v.24h-.21V39.72Zm.11.9a.65.65,0,0,0-.12.41v0a.67.67,0,0,0,.11.39.37.37,0,0,0,.34.17.42.42,0,0,0,.36-.17A.8.8,0,0,0,19,41a.69.69,0,0,0-.11-.41.4.4,0,0,0-.36-.17A.38.38,0,0,0,18.25,40.62Z"/><path class="cls-2" d="M32,40.4a.57.57,0,0,1,.2.4H32a.41.41,0,0,0-.14-.26.47.47,0,0,0-.28-.08.38.38,0,0,0-.33.16.7.7,0,0,0-.12.42.66.66,0,0,0,.11.42.39.39,0,0,0,.34.16.38.38,0,0,0,.42-.38h.23a.71.71,0,0,1-.22.43.65.65,0,0,1-.43.14.64.64,0,0,1-.51-.22.8.8,0,0,1-.17-.54.81.81,0,0,1,.17-.55.62.62,0,0,1,.51-.23A.7.7,0,0,1,32,40.4Z"/><path class="cls-2" d="M45.23,39.72v2.05H45v-.24a.5.5,0,0,1-.48.28.6.6,0,0,1-.5-.23.85.85,0,0,1-.16-.54.82.82,0,0,1,.16-.53.58.58,0,0,1,.49-.24.51.51,0,0,1,.48.31v-.86Zm-1,.91a.63.63,0,0,0-.11.41.71.71,0,0,0,.1.41.42.42,0,0,0,.36.17.38.38,0,0,0,.34-.17.67.67,0,0,0,.11-.39v0a.65.65,0,0,0-.13-.41.36.36,0,0,0-.31-.16A.39.39,0,0,0,44.21,40.63Z"/><path class="cls-2" d="M58.1,40.51a.94.94,0,0,1,.17.59H57.12a.6.6,0,0,0,.14.38.4.4,0,0,0,.32.14.44.44,0,0,0,.29-.09A.57.57,0,0,0,58,41.3h.23a.69.69,0,0,1-.2.34.68.68,0,0,1-.47.17.64.64,0,0,1-.5-.21.78.78,0,0,1-.19-.56.8.8,0,0,1,.18-.54.63.63,0,0,1,.5-.23A.6.6,0,0,1,58.1,40.51Zm-.83.08a.53.53,0,0,0-.14.34H58c0-.31-.18-.47-.46-.47A.39.39,0,0,0,57.27,40.59Z"/><g class="cls-3"><polygon class="cls-4" points="4.82 27.68 18.12 29.63 31.42 24.01 44.72 27.35 58.02 21.65 58.02 37.35 4.86 37.35 4.82 27.68"/></g><polygon class="cls-5" points="18.19 21.05 4.75 19.08 4.89 18.1 18.06 20.03 31.38 14.4 44.62 17.73 57.74 8.77 58.3 9.59 44.82 18.8 31.46 15.44 18.19 21.05"/><circle class="cls-6" cx="4.82" cy="18.67" r="1.48"/><path class="cls-7" d="M4.82,20.65a2,2,0,1,1,2-2A2,2,0,0,1,4.82,20.65Zm0-3a1,1,0,1,0,1,1A1,1,0,0,0,4.82,17.68Z"/><circle class="cls-6" cx="18.12" cy="20.15" r="1.48"/><path class="cls-7" d="M18.12,22.13a2,2,0,1,1,2-2A2,2,0,0,1,18.12,22.13Zm0-3a1,1,0,1,0,1,1A1,1,0,0,0,18.12,19.17Z"/><circle class="cls-6" cx="31.42" cy="15.11" r="1.48"/><path class="cls-7" d="M31.42,17.09a2,2,0,1,1,2-2A2,2,0,0,1,31.42,17.09Zm0-3a1,1,0,1,0,1,1A1,1,0,0,0,31.42,14.13Z"/><circle class="cls-6" cx="44.72" cy="17.73" r="1.48"/><path class="cls-7" d="M44.72,19.71a2,2,0,1,1,2-2A2,2,0,0,1,44.72,19.71Zm0-3a1,1,0,1,0,1,1A1,1,0,0,0,44.72,16.75Z"/><circle class="cls-6" cx="58.02" cy="9.18" r="1.48"/><path class="cls-7" d="M58,11.16a2,2,0,1,1,2-2A2,2,0,0,1,58,11.16Zm0-3a1,1,0,1,0,1,1A1,1,0,0,0,58,8.2Z"/><polygon class="cls-8" points="18.19 29.66 4.75 27.68 4.89 26.7 18.06 28.63 31.38 23 44.68 26.34 57.82 20.7 58.22 21.62 44.76 27.38 31.46 24.04 18.19 29.66"/><circle class="cls-9" cx="4.82" cy="27.27" r="1.48"/><path class="cls-8" d="M4.82,29.25a2,2,0,1,1,2-2A2,2,0,0,1,4.82,29.25Zm0-3a1,1,0,1,0,1,1A1,1,0,0,0,4.82,26.28Z"/><circle class="cls-9" cx="18.12" cy="28.75" r="1.48"/><path class="cls-8" d="M18.12,30.73a2,2,0,1,1,2-2A2,2,0,0,1,18.12,30.73Zm0-3a1,1,0,1,0,1,1A1,1,0,0,0,18.12,27.77Z"/><circle class="cls-9" cx="31.42" cy="23.71" r="1.48"/><path class="cls-8" d="M31.42,25.69a2,2,0,1,1,2-2A2,2,0,0,1,31.42,25.69Zm0-3a1,1,0,1,0,1,1A1,1,0,0,0,31.42,22.73Z"/><circle class="cls-9" cx="44.72" cy="26.33" r="1.48"/><path class="cls-8" d="M44.72,28.31a2,2,0,1,1,2-2A2,2,0,0,1,44.72,28.31Zm0-3a1,1,0,1,0,1,1A1,1,0,0,0,44.72,25.35Z"/><circle class="cls-9" cx="58.02" cy="21.16" r="1.48"/><path class="cls-8" d="M58,23.14a2,2,0,1,1,2-2A2,2,0,0,1,58,23.14Zm0-3a1,1,0,1,0,1,1A1,1,0,0,0,58,20.17Z"/></svg>