<svg id="图层_1" data-name="图层 1" xmlns="http://www.w3.org/2000/svg" viewBox="0 0 60.37 60"><defs><style>.cls-1{fill:#b3c0ce;}.cls-2{fill:#0676e3;}.cls-3{fill:#00c8c8;}.cls-4{fill:#8cd31a;}.cls-5{fill:#fd0;}.cls-6{fill:#0093ff;}</style></defs><title>pie</title><path class="cls-1" d="M56.86,12.38a.94.94,0,0,1,.19.6v1.4h-.32V14a.92.92,0,0,1-.33.29,1.1,1.1,0,0,1-.55.14.77.77,0,0,1-.52-.17.55.55,0,0,1-.2-.43.64.64,0,0,1,.3-.57,1.44,1.44,0,0,1,.76-.18h.52V13c0-.37-.19-.55-.57-.55a.75.75,0,0,0-.39.09.46.46,0,0,0-.22.32l-.33,0a.74.74,0,0,1,.33-.51,1.18,1.18,0,0,1,.63-.15A.93.93,0,0,1,56.86,12.38Zm-.65,1c-.49,0-.74.17-.74.49a.3.3,0,0,0,.13.25.54.54,0,0,0,.33.09.81.81,0,0,0,.55-.2.59.59,0,0,0,.23-.45v-.19Z"/><path class="cls-1" d="M30.9,56.87v1.29a.78.78,0,0,1,.72-.46.85.85,0,0,1,.73.35,1.26,1.26,0,0,1,.24.79,1.3,1.3,0,0,1-.24.81.9.9,0,0,1-.75.35.74.74,0,0,1-.72-.42v.36h-.32V56.87Zm.17,1.34a1,1,0,0,0-.19.62v0a1,1,0,0,0,.17.6.58.58,0,0,0,.51.25.6.6,0,0,0,.53-.26,1.11,1.11,0,0,0,.16-.62,1,1,0,0,0-.17-.61.61.61,0,0,0-.53-.25A.56.56,0,0,0,31.07,58.21Z"/><path class="cls-1" d="M1.68,32a.83.83,0,0,1,.3.6H1.65a.61.61,0,0,0-.2-.38A.64.64,0,0,0,1,32.06a.61.61,0,0,0-.51.24,1.1,1.1,0,0,0-.17.64,1,1,0,0,0,.17.63.59.59,0,0,0,.5.23.59.59,0,0,0,.64-.57H2a1,1,0,0,1-.33.64,1,1,0,0,1-.65.21.92.92,0,0,1-.76-.33,1.39,1.39,0,0,1,0-1.62A.9.9,0,0,1,1,31.78,1,1,0,0,1,1.68,32Z"/><path class="cls-1" d="M7.05,9.35v3.08H6.74v-.36a.77.77,0,0,1-.73.41.9.9,0,0,1-.75-.34,1.47,1.47,0,0,1,0-1.61A.88.88,0,0,1,6,10.18a.81.81,0,0,1,.73.46V9.35ZM5.53,10.72a1,1,0,0,0-.16.61,1.12,1.12,0,0,0,.15.62.61.61,0,0,0,.53.26A.59.59,0,0,0,6.56,12a1,1,0,0,0,.17-.59v0a1,1,0,0,0-.19-.61.57.57,0,0,0-.47-.24A.61.61,0,0,0,5.53,10.72Z"/><path class="cls-1" d="M22.11.35a1.5,1.5,0,0,1,.25.9H20.64a1,1,0,0,0,.2.57.63.63,0,0,0,.49.2.68.68,0,0,0,.44-.14A.8.8,0,0,0,22,1.54h.33a1,1,0,0,1-.29.52,1,1,0,0,1-.7.24A1,1,0,0,1,20.58,2a1.16,1.16,0,0,1-.29-.84,1.19,1.19,0,0,1,.28-.81A.9.9,0,0,1,21.32,0,.94.94,0,0,1,22.11.35ZM20.86.47a.85.85,0,0,0-.21.51H22c0-.47-.27-.7-.68-.7A.63.63,0,0,0,20.86.47Z"/><path class="cls-2" d="M30.7,3.06A25.87,25.87,0,0,1,52.54,42.78L30.7,28.67Z"/><path class="cls-3" d="M9.26,43.38a25.87,25.87,0,0,0,43.28-.6L30.7,28.67Z"/><path class="cls-4" d="M6.36,20.18a25.87,25.87,0,0,0,2.9,23.2L30.7,28.67Z"/><path class="cls-5" d="M15.23,8.19a26,26,0,0,0-8.87,12L30.7,28.67Z"/><path class="cls-6" d="M30.7,3.06A25.79,25.79,0,0,0,15.23,8.19L30.7,28.67Z"/></svg>