<svg id="图层_1" data-name="图层 1" xmlns="http://www.w3.org/2000/svg" viewBox="0 0 60 43.17"><defs><style>.cls-1{fill:#b3c0ce;}.cls-2{fill:#dde2ec;}.cls-3{opacity:0.76;}.cls-4{fill:#ffefae;}.cls-5{fill:#fd0;}.cls-6{fill:#c6ff7b;}.cls-7{fill:#73d500;}.cls-8{fill:#7bc3ff;}.cls-9{fill:#0376e3;}</style></defs><title>scatter</title><path class="cls-1" d="M9.9,41.76a.65.65,0,0,1,.13.41v1H9.81v-.25a.59.59,0,0,1-.22.19.7.7,0,0,1-.38.1.5.5,0,0,1-.35-.12.34.34,0,0,1-.14-.3.41.41,0,0,1,.2-.38,1,1,0,0,1,.52-.12H9.8v-.08c0-.25-.13-.37-.39-.37a.54.54,0,0,0-.27.06.32.32,0,0,0-.15.22l-.23,0A.55.55,0,0,1,9,41.7a.81.81,0,0,1,.43-.1A.63.63,0,0,1,9.9,41.76Zm-.44.66q-.51,0-.51.33a.21.21,0,0,0,.09.17.38.38,0,0,0,.22.07.59.59,0,0,0,.38-.14.43.43,0,0,0,.16-.31v-.13Z"/><path class="cls-1" d="M1.35,37.25a1.79,1.79,0,0,1,0,1.48.61.61,0,0,1-.56.33.59.59,0,0,1-.55-.33,1.7,1.7,0,0,1,0-1.48.59.59,0,0,1,.55-.33A.61.61,0,0,1,1.35,37.25Zm-.95.17a1.85,1.85,0,0,0,0,1.14.41.41,0,0,0,.79,0A1.48,1.48,0,0,0,1.28,38a1.48,1.48,0,0,0-.09-.57.41.41,0,0,0-.79,0Z"/><path class="cls-1" d="M1.06,27.9V30H.83V28.19a1.13,1.13,0,0,1-.49.28v-.24a.81.81,0,0,0,.29-.12,1,1,0,0,0,.25-.21Z"/><path class="cls-1" d="M1.29,18.91a.56.56,0,0,1,.19.43.69.69,0,0,1-.2.48,3.75,3.75,0,0,1-.43.34,1,1,0,0,0-.45.47H1.48v.21H.11a.76.76,0,0,1,.2-.51A2.57,2.57,0,0,1,.76,20a2.55,2.55,0,0,0,.32-.25.53.53,0,0,0,.16-.37.38.38,0,0,0-.11-.29.46.46,0,0,0-.32-.11.37.37,0,0,0-.32.15.67.67,0,0,0-.13.41H.13A.75.75,0,0,1,.32,19a.66.66,0,0,1,.5-.21A.68.68,0,0,1,1.29,18.91Z"/><path class="cls-1" d="M1.29,9.45a.51.51,0,0,1,.18.41.44.44,0,0,1-.34.46.53.53,0,0,1,.28.18.44.44,0,0,1,.1.3.59.59,0,0,1-.19.46.75.75,0,0,1-.52.18.74.74,0,0,1-.48-.15.76.76,0,0,1-.24-.53H.32a.45.45,0,0,0,.16.37.48.48,0,0,0,.32.11.45.45,0,0,0,.35-.13.38.38,0,0,0,.13-.3.37.37,0,0,0-.12-.29.49.49,0,0,0-.34-.1H.66v-.18H.81a.44.44,0,0,0,.32-.1.33.33,0,0,0,.11-.26.34.34,0,0,0-.11-.27.43.43,0,0,0-.31-.1.4.4,0,0,0-.32.11.46.46,0,0,0-.15.32H.12A.67.67,0,0,1,.81,9.3.73.73,0,0,1,1.29,9.45Z"/><path class="cls-1" d="M1.26.28v1.4h.33v.19H1.26v.47H1V1.87H0V1.65L1,.28ZM.2,1.68H1V.59H1Z"/><path class="cls-1" d="M21.13,41v.88a.54.54,0,0,1,.49-.31.57.57,0,0,1,.5.24.85.85,0,0,1,.17.54.88.88,0,0,1-.17.55.6.6,0,0,1-.51.24.51.51,0,0,1-.49-.29v.25H20.9V41Zm.12.92a.64.64,0,0,0-.13.42v0a.68.68,0,0,0,.11.4.41.41,0,0,0,.35.18A.42.42,0,0,0,22,42.8a.73.73,0,0,0,.1-.42.66.66,0,0,0-.11-.42.4.4,0,0,0-.37-.17A.38.38,0,0,0,21.25,42Z"/><path class="cls-1" d="M34.21,41.73a.62.62,0,0,1,.21.4h-.23a.44.44,0,0,0-.14-.26.5.5,0,0,0-.29-.08.4.4,0,0,0-.34.16.72.72,0,0,0-.12.44.71.71,0,0,0,.12.43.45.45,0,0,0,.78-.23h.23a.72.72,0,0,1-.23.43.71.71,0,0,1-1-.08.81.81,0,0,1-.18-.55.86.86,0,0,1,.18-.56.62.62,0,0,1,.52-.23A.71.71,0,0,1,34.21,41.73Z"/><path class="cls-1" d="M46.56,41v2.1h-.21v-.25a.55.55,0,0,1-.5.29.6.6,0,0,1-.51-.24.88.88,0,0,1-.17-.55.85.85,0,0,1,.17-.54.56.56,0,0,1,.5-.24.53.53,0,0,1,.49.31V41Zm-1,.93a.86.86,0,0,0,0,.84.4.4,0,0,0,.36.18.41.41,0,0,0,.35-.18.68.68,0,0,0,.11-.4v0a.7.7,0,0,0-.13-.42.38.38,0,0,0-.32-.16A.4.4,0,0,0,45.52,42Z"/><path class="cls-1" d="M58.59,41.84a1.05,1.05,0,0,1,.18.61H57.59a.68.68,0,0,0,.14.39.42.42,0,0,0,.33.13.49.49,0,0,0,.3-.09.57.57,0,0,0,.15-.23h.23a.66.66,0,0,1-.68.52.7.7,0,0,1-.51-.21.85.85,0,0,1-.2-.58.8.8,0,0,1,.19-.55.62.62,0,0,1,.51-.23A.63.63,0,0,1,58.59,41.84Zm-.85.08a.56.56,0,0,0-.14.35h.93c0-.32-.19-.48-.47-.48A.41.41,0,0,0,57.74,41.92Z"/><rect class="cls-2" x="5.24" y="1.39" width="0.25" height="36.91"/><rect class="cls-2" x="5.12" y="38.17" width="54.88" height="0.25"/><rect class="cls-2" x="59.75" y="28.95" width="0.25" height="0.25"/><path class="cls-2" d="M59.24,29.2h-.5V29h.5Zm-1,0h-.51V29h.51Zm-1,0h-.51V29h.51Zm-1,0H55.7V29h.51Zm-1,0h-.51V29h.51Zm-1,0h-.51V29h.51Zm-1,0h-.51V29h.51Zm-1,0h-.51V29h.51Zm-1,0h-.51V29h.51Zm-1,0h-.5V29h.5Zm-1,0h-.5V29h.5Zm-1,0h-.5V29h.5Zm-1,0h-.5V29h.5Zm-1,0h-.5V29h.5Zm-1,0h-.5V29h.5Zm-1,0h-.5V29h.5Zm-1,0h-.51V29h.51Zm-1,0h-.51V29h.51Zm-1,0h-.51V29h.51Zm-1,0h-.51V29H40Zm-1,0h-.51V29H39Zm-1,0h-.51V29H38Zm-1,0H36.5V29H37Zm-1,0h-.51V29H36Zm-1,0h-.5V29H35Zm-1,0h-.5V29H34Zm-1,0h-.5V29H33Zm-1,0h-.5V29H32Zm-1,0h-.5V29h.5Zm-1,0h-.5V29h.5Zm-1,0h-.51V29h.51Zm-1,0H27.4V29h.51Zm-1,0h-.51V29h.51Zm-1,0h-.51V29h.51Zm-1,0h-.51V29h.51Zm-1,0h-.51V29h.51Zm-1,0h-.51V29h.51Zm-1,0h-.51V29h.51Zm-1,0h-.51V29h.51Zm-1,0h-.5V29h.5Zm-1,0h-.5V29h.5Zm-1,0h-.5V29h.5Zm-1,0h-.5V29h.5Zm-1,0h-.5V29h.5Zm-1,0h-.5V29h.5Zm-1,0h-.51V29h.51Zm-1,0h-.51V29h.51Zm-1,0h-.51V29h.51Zm-1,0h-.51V29h.51Zm-1,0H9.21V29h.51Zm-1,0H8.2V29h.51Zm-1,0H7.19V29H7.7Zm-1,0h-.5V29h.5Z"/><rect class="cls-2" x="5.42" y="28.95" width="0.25" height="0.25"/><rect class="cls-2" x="59.75" y="19.72" width="0.25" height="0.25"/><path class="cls-2" d="M59.24,20h-.5v-.25h.5Zm-1,0h-.51v-.25h.51Zm-1,0h-.51v-.25h.51Zm-1,0H55.7v-.25h.51Zm-1,0h-.51v-.25h.51Zm-1,0h-.51v-.25h.51Zm-1,0h-.51v-.25h.51Zm-1,0h-.51v-.25h.51Zm-1,0h-.51v-.25h.51Zm-1,0h-.5v-.25h.5Zm-1,0h-.5v-.25h.5Zm-1,0h-.5v-.25h.5Zm-1,0h-.5v-.25h.5Zm-1,0h-.5v-.25h.5Zm-1,0h-.5v-.25h.5Zm-1,0h-.5v-.25h.5Zm-1,0h-.51v-.25h.51Zm-1,0h-.51v-.25h.51Zm-1,0h-.51v-.25h.51Zm-1,0h-.51v-.25H40Zm-1,0h-.51v-.25H39Zm-1,0h-.51v-.25H38Zm-1,0H36.5v-.25H37Zm-1,0h-.51v-.25H36Zm-1,0h-.5v-.25H35Zm-1,0h-.5v-.25H34Zm-1,0h-.5v-.25H33Zm-1,0h-.5v-.25H32Zm-1,0h-.5v-.25h.5Zm-1,0h-.5v-.25h.5Zm-1,0h-.51v-.25h.51Zm-1,0H27.4v-.25h.51Zm-1,0h-.51v-.25h.51Zm-1,0h-.51v-.25h.51Zm-1,0h-.51v-.25h.51Zm-1,0h-.51v-.25h.51Zm-1,0h-.51v-.25h.51Zm-1,0h-.51v-.25h.51Zm-1,0h-.51v-.25h.51Zm-1,0h-.5v-.25h.5Zm-1,0h-.5v-.25h.5Zm-1,0h-.5v-.25h.5Zm-1,0h-.5v-.25h.5Zm-1,0h-.5v-.25h.5Zm-1,0h-.5v-.25h.5Zm-1,0h-.51v-.25h.51Zm-1,0h-.51v-.25h.51Zm-1,0h-.51v-.25h.51Zm-1,0h-.51v-.25h.51Zm-1,0H9.21v-.25h.51Zm-1,0H8.2v-.25h.51Zm-1,0H7.19v-.25H7.7Zm-1,0h-.5v-.25h.5Z"/><rect class="cls-2" x="5.42" y="19.72" width="0.25" height="0.25"/><rect class="cls-2" x="59.75" y="10.49" width="0.25" height="0.25"/><path class="cls-2" d="M59.24,10.75h-.5v-.26h.5Zm-1,0h-.51v-.26h.51Zm-1,0h-.51v-.26h.51Zm-1,0H55.7v-.26h.51Zm-1,0h-.51v-.26h.51Zm-1,0h-.51v-.26h.51Zm-1,0h-.51v-.26h.51Zm-1,0h-.51v-.26h.51Zm-1,0h-.51v-.26h.51Zm-1,0h-.5v-.26h.5Zm-1,0h-.5v-.26h.5Zm-1,0h-.5v-.26h.5Zm-1,0h-.5v-.26h.5Zm-1,0h-.5v-.26h.5Zm-1,0h-.5v-.26h.5Zm-1,0h-.5v-.26h.5Zm-1,0h-.51v-.26h.51Zm-1,0h-.51v-.26h.51Zm-1,0h-.51v-.26h.51Zm-1,0h-.51v-.26H40Zm-1,0h-.51v-.26H39Zm-1,0h-.51v-.26H38Zm-1,0H36.5v-.26H37Zm-1,0h-.51v-.26H36Zm-1,0h-.5v-.26H35Zm-1,0h-.5v-.26H34Zm-1,0h-.5v-.26H33Zm-1,0h-.5v-.26H32Zm-1,0h-.5v-.26h.5Zm-1,0h-.5v-.26h.5Zm-1,0h-.51v-.26h.51Zm-1,0H27.4v-.26h.51Zm-1,0h-.51v-.26h.51Zm-1,0h-.51v-.26h.51Zm-1,0h-.51v-.26h.51Zm-1,0h-.51v-.26h.51Zm-1,0h-.51v-.26h.51Zm-1,0h-.51v-.26h.51Zm-1,0h-.51v-.26h.51Zm-1,0h-.5v-.26h.5Zm-1,0h-.5v-.26h.5Zm-1,0h-.5v-.26h.5Zm-1,0h-.5v-.26h.5Zm-1,0h-.5v-.26h.5Zm-1,0h-.5v-.26h.5Zm-1,0h-.51v-.26h.51Zm-1,0h-.51v-.26h.51Zm-1,0h-.51v-.26h.51Zm-1,0h-.51v-.26h.51Zm-1,0H9.21v-.26h.51Zm-1,0H8.2v-.26h.51Zm-1,0H7.19v-.26H7.7Zm-1,0h-.5v-.26h.5Z"/><rect class="cls-2" x="5.42" y="10.49" width="0.25" height="0.25"/><rect class="cls-2" x="59.75" y="1.27" width="0.25" height="0.25"/><path class="cls-2" d="M59.24,1.52h-.5V1.27h.5Zm-1,0h-.51V1.27h.51Zm-1,0h-.51V1.27h.51Zm-1,0H55.7V1.27h.51Zm-1,0h-.51V1.27h.51Zm-1,0h-.51V1.27h.51Zm-1,0h-.51V1.27h.51Zm-1,0h-.51V1.27h.51Zm-1,0h-.51V1.27h.51Zm-1,0h-.5V1.27h.5Zm-1,0h-.5V1.27h.5Zm-1,0h-.5V1.27h.5Zm-1,0h-.5V1.27h.5Zm-1,0h-.5V1.27h.5Zm-1,0h-.5V1.27h.5Zm-1,0h-.5V1.27h.5Zm-1,0h-.51V1.27h.51Zm-1,0h-.51V1.27h.51Zm-1,0h-.51V1.27h.51Zm-1,0h-.51V1.27H40Zm-1,0h-.51V1.27H39Zm-1,0h-.51V1.27H38Zm-1,0H36.5V1.27H37Zm-1,0h-.51V1.27H36Zm-1,0h-.5V1.27H35Zm-1,0h-.5V1.27H34Zm-1,0h-.5V1.27H33Zm-1,0h-.5V1.27H32Zm-1,0h-.5V1.27h.5Zm-1,0h-.5V1.27h.5Zm-1,0h-.51V1.27h.51Zm-1,0H27.4V1.27h.51Zm-1,0h-.51V1.27h.51Zm-1,0h-.51V1.27h.51Zm-1,0h-.51V1.27h.51Zm-1,0h-.51V1.27h.51Zm-1,0h-.51V1.27h.51Zm-1,0h-.51V1.27h.51Zm-1,0h-.51V1.27h.51Zm-1,0h-.5V1.27h.5Zm-1,0h-.5V1.27h.5Zm-1,0h-.5V1.27h.5Zm-1,0h-.5V1.27h.5Zm-1,0h-.5V1.27h.5Zm-1,0h-.5V1.27h.5Zm-1,0h-.51V1.27h.51Zm-1,0h-.51V1.27h.51Zm-1,0h-.51V1.27h.51Zm-1,0h-.51V1.27h.51Zm-1,0H9.21V1.27h.51Zm-1,0H8.2V1.27h.51Zm-1,0H7.19V1.27H7.7Zm-1,0h-.5V1.27h.5Z"/><rect class="cls-2" x="5.42" y="1.27" width="0.25" height="0.25"/><g class="cls-3"><circle class="cls-4" cx="11.68" cy="25.94" r="2.04"/><path class="cls-5" d="M11.68,28.35h-.24a2.39,2.39,0,0,1-1.63-.87,2.42,2.42,0,0,1-.54-1.77,2.39,2.39,0,0,1,.87-1.63,2.42,2.42,0,0,1,3.94,2.1h0A2.42,2.42,0,0,1,11.68,28.35Zm0-4.07a1.59,1.59,0,0,0-1,.38,1.61,1.61,0,0,0-.6,1.12A1.65,1.65,0,0,0,10.4,27a1.61,1.61,0,0,0,1.11.59,1.64,1.64,0,0,0,1.81-1.48,1.66,1.66,0,0,0-1.48-1.81Z"/></g><g class="cls-3"><circle class="cls-4" cx="16.41" cy="29.97" r="2.04"/><path class="cls-5" d="M16.41,32.38h-.23a2.42,2.42,0,1,1,2.64-2.17h0A2.43,2.43,0,0,1,16.41,32.38Zm0-4.07a1.68,1.68,0,1,0,.16,0Z"/></g><g class="cls-3"><circle class="cls-4" cx="10.93" cy="33.52" r="2.04"/><path class="cls-5" d="M10.94,35.94H10.7a2.42,2.42,0,0,1-2.17-2.64,2.42,2.42,0,0,1,2.64-2.17,2.42,2.42,0,0,1,2.17,2.64h0A2.42,2.42,0,0,1,10.94,35.94Zm0-4.07a1.68,1.68,0,0,0-1,.37,1.66,1.66,0,0,0-.59,1.12,1.66,1.66,0,0,0,1.48,1.81,1.65,1.65,0,1,0,.32-3.29Z"/></g><g class="cls-3"><circle class="cls-4" cx="14.03" cy="22.81" r="2.04"/><path class="cls-5" d="M14,25.22h-.24A2.42,2.42,0,1,1,16.43,23h0A2.42,2.42,0,0,1,14,25.22Zm0-4.07a1.65,1.65,0,0,0-.17,3.3A1.65,1.65,0,0,0,15.67,23a1.65,1.65,0,0,0-1.48-1.81Z"/></g><g class="cls-3"><circle class="cls-4" cx="20.28" cy="23.42" r="2.04"/><path class="cls-5" d="M20.28,25.83H20A2.39,2.39,0,0,1,18.41,25,2.42,2.42,0,0,1,20.51,21a2.39,2.39,0,0,1,1.64.87,2.41,2.41,0,0,1,.53,1.77,2.42,2.42,0,0,1-2.4,2.18Zm0-4.07A1.66,1.66,0,0,0,19,24.47a1.63,1.63,0,0,0,1.12.59,1.57,1.57,0,0,0,1.21-.37,1.66,1.66,0,0,0,.6-1.11h0a1.65,1.65,0,0,0-.37-1.21,1.61,1.61,0,0,0-1.12-.6Z"/></g><g class="cls-3"><circle class="cls-6" cx="25.03" cy="16.69" r="2.04"/><path class="cls-7" d="M25,19.11h-.24a2.42,2.42,0,0,1,.47-4.81,2.39,2.39,0,0,1,1.63.87,2.42,2.42,0,0,1,.54,1.77A2.42,2.42,0,0,1,25,19.11ZM25,15a1.65,1.65,0,0,0-.17,3.3A1.68,1.68,0,0,0,26.08,18a1.63,1.63,0,0,0,.59-1.12h0a1.57,1.57,0,0,0-.37-1.21,1.61,1.61,0,0,0-1.11-.59Z"/></g><g class="cls-3"><circle class="cls-6" cx="29.17" cy="23.91" r="2.04"/><path class="cls-7" d="M29.18,26.33h-.24a2.42,2.42,0,1,1,2.64-2.17h0A2.42,2.42,0,0,1,29.18,26.33Zm0-4.07a1.58,1.58,0,1,0,.17,0Z"/></g><g class="cls-3"><circle class="cls-6" cx="28.27" cy="15.92" r="2.04"/><path class="cls-7" d="M28.27,18.33H28a2.39,2.39,0,0,1-1.63-.87,2.42,2.42,0,0,1-.54-1.77,2.47,2.47,0,0,1,.87-1.63,2.41,2.41,0,0,1,3.94,2.1h0A2.41,2.41,0,0,1,28.27,18.33Zm0-4.07a1.61,1.61,0,0,0-1.05.38,1.65,1.65,0,0,0-.6,1.11A1.67,1.67,0,0,0,27,17a1.63,1.63,0,0,0,1.12.59,1.65,1.65,0,1,0,.32-3.29Z"/></g><g class="cls-3"><circle class="cls-6" cx="34.63" cy="19.68" r="2.04"/><path class="cls-7" d="M34.63,22.09h-.24a2.42,2.42,0,0,1,.47-4.81A2.42,2.42,0,0,1,37,19.91h0a2.42,2.42,0,0,1-2.4,2.18Zm0-4.07a1.66,1.66,0,0,0-1.28,2.71,1.67,1.67,0,0,0,2.33.23,1.71,1.71,0,0,0,.6-1.12A1.66,1.66,0,0,0,34.79,18Z"/></g><g class="cls-3"><circle class="cls-6" cx="29.31" cy="10.61" r="2.04"/><path class="cls-7" d="M29.31,13l-.24,0a2.41,2.41,0,1,1,.47-4.8A2.42,2.42,0,0,1,29.31,13ZM29.3,9a1.65,1.65,0,0,0-.15,3.3,1.7,1.7,0,0,0,1.21-.37A1.63,1.63,0,0,0,31,10.77h0a1.57,1.57,0,0,0-.37-1.21A1.66,1.66,0,0,0,29.47,9Z"/></g><g class="cls-3"><circle class="cls-8" cx="37.76" cy="8.57" r="2.04"/><path class="cls-9" d="M37.77,11h-.24a2.47,2.47,0,0,1-1.64-.87,2.43,2.43,0,0,1,.34-3.4A2.35,2.35,0,0,1,38,6.17,2.39,2.39,0,0,1,39.63,7a2.36,2.36,0,0,1,.53,1.77A2.42,2.42,0,0,1,37.77,11Zm0-4.07a1.65,1.65,0,0,0-1.65,1.49,1.66,1.66,0,0,0,2.7,1.44,1.69,1.69,0,0,0,.6-1.12h0A1.65,1.65,0,0,0,39,7.52a1.69,1.69,0,0,0-1.12-.6Z"/></g><g class="cls-3"><circle class="cls-8" cx="36.25" cy="11.29" r="2.04"/><path class="cls-9" d="M36.25,13.7H36a2.42,2.42,0,0,1-2.17-2.64,2.47,2.47,0,0,1,.87-1.63,2.42,2.42,0,0,1,3.94,2.1h0A2.41,2.41,0,0,1,36.25,13.7Zm0-4.07a1.61,1.61,0,0,0-1,.38,1.66,1.66,0,0,0,.89,2.93,1.67,1.67,0,0,0,1.81-1.49h0a1.67,1.67,0,0,0-1.49-1.81Z"/></g><g class="cls-3"><circle class="cls-8" cx="43.9" cy="10.9" r="2.04"/><path class="cls-9" d="M43.9,13.32h-.24a2.42,2.42,0,1,1,2.64-2.17h0a2.42,2.42,0,0,1-2.4,2.18Zm0-4.07a1.65,1.65,0,0,0-.16,3.3A1.61,1.61,0,0,0,45,12.18a1.65,1.65,0,0,0-.89-2.92Z"/></g><g class="cls-3"><circle class="cls-8" cx="39.12" cy="2.8" r="2.04"/><path class="cls-9" d="M39.12,5.22l-.23,0a2.39,2.39,0,0,1-1.63-.87,2.41,2.41,0,0,1,.33-3.4A2.36,2.36,0,0,1,39.36.4,2.42,2.42,0,0,1,41.53,3h0A2.43,2.43,0,0,1,39.12,5.22Zm0-4.08a1.69,1.69,0,0,0-1,.38,1.63,1.63,0,0,0-.59,1.12,1.61,1.61,0,0,0,.36,1.21,1.71,1.71,0,0,0,1.12.6A1.67,1.67,0,0,0,40.77,3h0a1.65,1.65,0,0,0-.37-1.21,1.69,1.69,0,0,0-1.12-.6Z"/></g><g class="cls-3"><circle class="cls-8" cx="56.13" cy="2.42" r="2.04"/><path class="cls-9" d="M56.13,4.83h-.24a2.42,2.42,0,0,1-2.17-2.64A2.47,2.47,0,0,1,54.59.55a2.42,2.42,0,0,1,3.94,2.1h0A2.41,2.41,0,0,1,56.13,4.83Zm0-4.07a1.61,1.61,0,0,0-1.05.38,1.65,1.65,0,1,0,2.7,1.44A1.67,1.67,0,0,0,56.29.77Z"/></g><g class="cls-3"><circle class="cls-8" cx="51.9" cy="9.64" r="2.04"/><path class="cls-9" d="M51.91,12.06h-.24A2.47,2.47,0,0,1,50,11.18a2.42,2.42,0,0,1,2.1-3.94,2.42,2.42,0,0,1,2.17,2.64,2.42,2.42,0,0,1-.87,1.63A2.39,2.39,0,0,1,51.91,12.06ZM51.9,8a1.65,1.65,0,0,0-1.64,1.49,1.57,1.57,0,0,0,.37,1.21,1.62,1.62,0,0,0,1.11.6A1.64,1.64,0,0,0,53,10.92a1.61,1.61,0,0,0,.6-1.12h0a1.65,1.65,0,0,0-.37-1.21A1.69,1.69,0,0,0,52.06,8Z"/></g><g class="cls-3"><circle class="cls-8" cx="52.73" cy="16.26" r="2.04"/><path class="cls-9" d="M52.73,18.68H52.5a2.42,2.42,0,1,1,2.63-2.17h0A2.42,2.42,0,0,1,52.73,18.68Zm0-4.07a1.65,1.65,0,1,0,1.65,1.81h0a1.66,1.66,0,0,0-1.49-1.81Z"/></g><g class="cls-3"><circle class="cls-8" cx="57.11" cy="13.33" r="2.04"/><path class="cls-9" d="M57.11,15.74h-.24a2.39,2.39,0,0,1-1.63-.87,2.42,2.42,0,1,1,4.27-1.3,2.42,2.42,0,0,1-2.4,2.18Zm0-4.07A1.65,1.65,0,0,0,57,15a1.61,1.61,0,0,0,1.21-.36,1.66,1.66,0,0,0,.59-1.12h0a1.65,1.65,0,0,0-1.48-1.81Z"/></g><g class="cls-3"><circle class="cls-8" cx="44.99" cy="20.69" r="2.04"/><path class="cls-9" d="M45,23.11l-.24,0a2.42,2.42,0,0,1-2.17-2.64,2.42,2.42,0,0,1,.87-1.63,2.37,2.37,0,0,1,1.77-.53,2.4,2.4,0,0,1,2.17,2.63h0A2.42,2.42,0,0,1,45,23.11ZM45,19a1.66,1.66,0,0,0-1,.38,1.61,1.61,0,0,0-.6,1.12,1.65,1.65,0,0,0,.37,1.21,1.69,1.69,0,0,0,1.12.6,1.66,1.66,0,0,0,.32-3.3Z"/></g><g class="cls-3"><circle class="cls-8" cx="41.64" cy="26.82" r="2.04"/><path class="cls-9" d="M41.64,29.24l-.24,0a2.42,2.42,0,0,1-2.17-2.63A2.43,2.43,0,0,1,40.1,25a2.37,2.37,0,0,1,1.77-.53A2.41,2.41,0,0,1,44,27.05h0A2.42,2.42,0,0,1,41.64,29.24Zm0-4.07a1.65,1.65,0,0,0-1.27,2.7,1.69,1.69,0,0,0,1.12.6,1.66,1.66,0,0,0,.32-3.3Z"/></g></svg>