<svg id="图层_1" data-name="图层 1" xmlns="http://www.w3.org/2000/svg" viewBox="0 0 60 41.01"><defs><style>.cls-1{fill:#0676e3;}.cls-2{fill:#0071ce;}.cls-3{fill:#dde2ec;}.cls-4{fill:#fff;}.cls-5{isolation:isolate;}.cls-6{fill:#b3c0ce;}</style></defs><title>pivottable</title><path class="cls-1" d="M58.28,41H1.72A1.72,1.72,0,0,1,0,39.3V1.72A1.72,1.72,0,0,1,1.72,0H58.28A1.72,1.72,0,0,1,60,1.72V39.3A1.72,1.72,0,0,1,58.28,41ZM1.72.88a.85.85,0,0,0-.84.84V39.3a.84.84,0,0,0,.84.83H58.28a.84.84,0,0,0,.84-.83V1.72a.85.85,0,0,0-.84-.84Z"/><path class="cls-1" d="M2.32.44H57.68a1.88,1.88,0,0,1,1.88,1.88V20.51a0,0,0,0,1,0,0H.44a0,0,0,0,1,0,0V2.32A1.88,1.88,0,0,1,2.32.44Z"/><rect class="cls-2" x="0.53" y="10.03" width="59.03" height="0.88"/><rect class="cls-3" x="0.91" y="30.1" width="58.16" height="0.88"/><rect class="cls-3" x="39.44" y="20.51" width="0.88" height="19.57"/><rect class="cls-2" x="39.44" y="10.47" width="0.88" height="10.03"/><path class="cls-4" d="M7.51,14.25v1.08a.64.64,0,0,1,.6-.38.71.71,0,0,1,.61.29,1.08,1.08,0,0,1,.2.66,1.12,1.12,0,0,1-.2.68.75.75,0,0,1-.62.29.63.63,0,0,1-.61-.35v.3H7.23V14.25Zm.14,1.13a.81.81,0,0,0-.15.51v0a.81.81,0,0,0,.13.49.5.5,0,0,0,.43.21.52.52,0,0,0,.45-.21,1,1,0,0,0,.13-.52.84.84,0,0,0-.14-.51.52.52,0,0,0-.45-.21A.46.46,0,0,0,7.65,15.38Z"/><g class="cls-5"><path class="cls-6" d="M8.17,25a2.17,2.17,0,0,1,0,1.82.78.78,0,0,1-1.36,0,2.17,2.17,0,0,1,0-1.82.78.78,0,0,1,1.36,0ZM7,25.18a1.68,1.68,0,0,0-.11.7,1.74,1.74,0,0,0,.11.7.49.49,0,0,0,.48.36A.51.51,0,0,0,8,26.58a1.94,1.94,0,0,0,.11-.7,1.86,1.86,0,0,0-.11-.7.51.51,0,0,0-.49-.36A.49.49,0,0,0,7,25.18Z"/><path class="cls-6" d="M9.56,24.62v2.52H9.27V25a1.41,1.41,0,0,1-.59.35V25A1.48,1.48,0,0,0,9,24.88a1.28,1.28,0,0,0,.3-.26Z"/></g><g class="cls-5"><path class="cls-6" d="M7.93,34.79a2.17,2.17,0,0,1,0,1.82.76.76,0,0,1-.68.4.75.75,0,0,1-.68-.4,2.17,2.17,0,0,1,0-1.82.73.73,0,0,1,.68-.4A.74.74,0,0,1,7.93,34.79ZM6.76,35a1.89,1.89,0,0,0-.1.7,1.92,1.92,0,0,0,.1.7.51.51,0,0,0,1,0,1.9,1.9,0,0,0,.11-.7,1.86,1.86,0,0,0-.11-.7.51.51,0,0,0-1,0Z"/><path class="cls-6" d="M10,34.59a.7.7,0,0,1,.22.54.88.88,0,0,1-.24.59,3.15,3.15,0,0,1-.53.4,1.29,1.29,0,0,0-.55.58h1.33V37H8.5a.88.88,0,0,1,.25-.62,2.67,2.67,0,0,1,.55-.45,3.7,3.7,0,0,0,.39-.32.63.63,0,0,0,.19-.45.45.45,0,0,0-.13-.35.54.54,0,0,0-.39-.13.49.49,0,0,0-.4.18.78.78,0,0,0-.15.5H8.52a.92.92,0,0,1,.24-.67.79.79,0,0,1,.61-.26A.85.85,0,0,1,10,34.59Z"/></g><path class="cls-4" d="M27.26,14.76a.68.68,0,0,1,.26.49h-.28a.45.45,0,0,0-.17-.31.54.54,0,0,0-.35-.1.49.49,0,0,0-.42.2.84.84,0,0,0-.15.53.82.82,0,0,0,.15.52.47.47,0,0,0,.42.19.48.48,0,0,0,.53-.47h.28a.87.87,0,0,1-.27.53.8.8,0,0,1-.54.18.78.78,0,0,1-.64-.27,1.07,1.07,0,0,1-.22-.68,1,1,0,0,1,.22-.68.77.77,0,0,1,.64-.29A.81.81,0,0,1,27.26,14.76Z"/><path class="cls-4" d="M50,14.25v2.57h-.26v-.3a.65.65,0,0,1-.61.35.75.75,0,0,1-.62-.29,1.06,1.06,0,0,1-.2-.68,1,1,0,0,1,.2-.66A.71.71,0,0,1,49.1,15a.64.64,0,0,1,.6.38V14.25Zm-1.27,1.14a.84.84,0,0,0-.13.51.89.89,0,0,0,.13.52.49.49,0,0,0,.44.21.52.52,0,0,0,.43-.21.89.89,0,0,0,.13-.49v0a.81.81,0,0,0-.15-.51.47.47,0,0,0-.4-.2A.52.52,0,0,0,48.71,15.39Z"/><g class="cls-5"><path class="cls-6" d="M49.24,24.57v2.57H49v-.3a.65.65,0,0,1-.61.35.75.75,0,0,1-.62-.29,1.06,1.06,0,0,1-.21-.68,1,1,0,0,1,.21-.66.71.71,0,0,1,.61-.29.64.64,0,0,1,.6.38V24.57ZM48,25.71a.84.84,0,0,0-.14.51,1,1,0,0,0,.13.52.52.52,0,0,0,.45.21.49.49,0,0,0,.42-.21.81.81,0,0,0,.14-.49v0a.81.81,0,0,0-.15-.51.48.48,0,0,0-.4-.2A.52.52,0,0,0,48,25.71Z"/><path class="cls-6" d="M50.47,24.62v2.52h-.29V25a1.35,1.35,0,0,1-.59.35V25a1.48,1.48,0,0,0,.35-.15,1.58,1.58,0,0,0,.31-.26Z"/></g><g class="cls-5"><path class="cls-6" d="M49.24,34.39V37H49v-.3a.65.65,0,0,1-.61.35.75.75,0,0,1-.62-.29,1.06,1.06,0,0,1-.21-.68,1,1,0,0,1,.21-.66.71.71,0,0,1,.61-.29.64.64,0,0,1,.6.38V34.39ZM48,35.53a.86.86,0,0,0-.14.51,1,1,0,0,0,.13.52.52.52,0,0,0,.45.22.47.47,0,0,0,.42-.22.81.81,0,0,0,.14-.49v0a.81.81,0,0,0-.15-.51.48.48,0,0,0-.4-.2A.52.52,0,0,0,48,35.53Z"/><path class="cls-6" d="M51.1,34.59a.71.71,0,0,1,.23.54.89.89,0,0,1-.25.59,3.42,3.42,0,0,1-.52.4c-.32.22-.51.41-.55.58h1.32V37H49.65a.88.88,0,0,1,.25-.62,2.67,2.67,0,0,1,.55-.45,2.33,2.33,0,0,0,.39-.32.64.64,0,0,0,.2-.45.45.45,0,0,0-.14-.35.52.52,0,0,0-.38-.13.46.46,0,0,0-.4.18.78.78,0,0,0-.16.5h-.29a1,1,0,0,1,.24-.67.81.81,0,0,1,.62-.26A.84.84,0,0,1,51.1,34.59Z"/></g><path class="cls-4" d="M28.19,4.77a.77.77,0,0,1,.16.5V6.44h-.26v-.3a1.11,1.11,0,0,1-.28.24,1,1,0,0,1-.46.11.59.59,0,0,1-.43-.14A.42.42,0,0,1,26.75,6,.51.51,0,0,1,27,5.52a1.21,1.21,0,0,1,.63-.16h.44v-.1c0-.31-.16-.46-.48-.46a.67.67,0,0,0-.33.08.44.44,0,0,0-.18.26l-.28,0a.62.62,0,0,1,.29-.42.89.89,0,0,1,.52-.13A.78.78,0,0,1,28.19,4.77Zm-.54.8c-.41,0-.61.15-.61.41a.26.26,0,0,0,.1.21.46.46,0,0,0,.27.08.69.69,0,0,0,.46-.17.5.5,0,0,0,.2-.38V5.57Z"/><g id="路径_12988" data-name="路径 12988"><path class="cls-4" d="M32,6.15a.23.23,0,0,0,.31-.1h0l1-1.53c.12-.18,0-.32-.22-.32h-2c-.24,0-.34.14-.22.31l1,1.54A.22.22,0,0,0,32,6.15Z"/></g><g id="路径_12988-2" data-name="路径 12988"><path class="cls-4" d="M13.37,16.53a.25.25,0,0,0,.32-.11h0l1-1.53c.11-.17,0-.32-.22-.32h-2c-.24,0-.34.14-.22.31l1,1.54A.27.27,0,0,0,13.37,16.53Z"/></g><g id="路径_12988-3" data-name="路径 12988"><path class="cls-4" d="M32.42,16.53a.24.24,0,0,0,.31-.11h0l1-1.53c.12-.17,0-.32-.22-.32h-2c-.24,0-.34.14-.22.31l1,1.54A.23.23,0,0,0,32.42,16.53Z"/></g><path class="cls-1" d="M33.66,40.83H10.8a.45.45,0,0,1-.44-.45V38.45A.45.45,0,0,1,10.8,38H33.66a.45.45,0,0,1,.44.45v1.93A.45.45,0,0,1,33.66,40.83Zm-22.42-.89h22v-1h-22Z"/></svg>